<svg width="756" height="420" viewBox="0 0 756 420" fill="none" xmlns="http://www.w3.org/2000/svg">
<defs>
<linearGradient id="paint0_linear" x1="217.651" y1="145.536" x2="270.142" y2="356.698" gradientUnits="userSpaceOnUse">
<stop stop-color="#FFCDF1"/>
<stop offset="1" stop-color="#FF8372" stop-opacity="0"/>
</linearGradient>
<linearGradient id="paint1_linear" x1="610.565" y1="0.88916" x2="668.139" y2="232.501" gradientUnits="userSpaceOnUse">
<stop stop-color="#CDD8FF"/>
<stop offset="1" stop-color="#72FFE6" stop-opacity="0"/>
</linearGradient>
<linearGradient id="paint2_linear" x1="506.963" y1="204.565" x2="549.49" y2="375.646" gradientUnits="userSpaceOnUse">
<stop stop-color="#A2E7C2"/>
<stop offset="1" stop-color="#55AE9D" stop-opacity="0"/>
</linearGradient>
<linearGradient id="paint3_linear" x1="81.9969" y1="34.0361" x2="81.9969" y2="183.036" gradientUnits="userSpaceOnUse">
<stop stop-color="#FFEBCD"/>
<stop offset="1" stop-color="#FF7272" stop-opacity="0"/>
</linearGradient>
</defs>
<path d="M199.238 165.584C209.144 154.798 226.158 154.798 236.064 165.584L259.26 190.841C262.717 194.605 267.245 197.219 272.234 198.331L305.705 205.792C319.999 208.977 328.506 223.712 324.118 237.683L313.843 270.4C312.312 275.277 312.312 280.505 313.843 285.382L324.118 318.099C328.506 332.07 319.999 346.804 305.705 349.99L272.234 357.451C267.245 358.563 262.717 361.177 259.26 364.941L236.064 390.198C226.158 400.984 209.144 400.984 199.238 390.198L176.042 364.941C172.585 361.177 168.057 358.563 163.068 357.451L129.597 349.99C115.303 346.804 106.796 332.07 111.184 318.099L121.459 285.382C122.99 280.505 122.99 275.277 121.459 270.4L111.184 237.683C106.796 223.712 115.303 208.977 129.597 205.792L163.068 198.331C168.057 197.219 172.585 194.605 176.042 190.841L199.238 165.584Z" fill="url(#paint0_linear)" fill-opacity="0.3"/>
<path d="M589.021 37.4802C598.69 21.0588 622.44 21.0588 632.108 37.4802L645.703 60.5705C650.157 68.1363 658.254 72.8109 667.033 72.8857L693.827 73.1139C712.883 73.2761 724.758 93.8444 715.371 110.428L702.171 133.747C697.846 141.387 697.846 150.736 702.171 158.377L715.371 181.695C724.758 198.279 712.883 218.847 693.827 219.01L667.033 219.238C658.254 219.313 650.157 223.987 645.703 231.553L632.108 254.643C622.44 271.065 598.69 271.065 589.021 254.643L575.427 231.553C570.972 223.987 562.876 219.313 554.096 219.238L527.302 219.01C508.247 218.847 496.371 198.279 505.759 181.695L518.958 158.377C523.283 150.736 523.283 141.387 518.958 133.747L505.759 110.428C496.371 93.8444 508.247 73.2761 527.302 73.1139L554.096 72.8857C562.876 72.8109 570.972 68.1363 575.427 60.5705L589.021 37.4802Z" fill="url(#paint1_linear)" fill-opacity="0.3"/>
<path d="M485.419 241.156C495.087 224.734 518.838 224.734 528.506 241.156L531.041 245.462C535.495 253.027 543.592 257.702 552.372 257.777L557.368 257.819C576.424 257.982 588.299 278.55 578.911 295.134L576.45 299.482C572.125 307.122 572.125 316.472 576.45 324.112L578.911 328.461C588.299 345.044 576.424 365.613 557.368 365.775L552.372 365.818C543.592 365.892 535.495 370.567 531.041 378.133L528.506 382.439C518.838 398.86 495.087 398.86 485.419 382.439L482.884 378.133C478.43 370.567 470.333 365.892 461.553 365.818L456.557 365.775C437.501 365.613 425.626 345.044 435.014 328.461L437.475 324.112C441.8 316.472 441.8 307.122 437.475 299.482L435.014 295.134C425.626 278.55 437.501 257.982 456.557 257.819L461.553 257.777C470.333 257.702 478.43 253.027 482.884 245.462L485.419 241.156Z" fill="url(#paint2_linear)" fill-opacity="0.3"/>
<path d="M88.4163 33.0156C98.3222 22.2298 115.336 22.2298 125.242 33.0156L139.296 48.3182C142.753 52.0826 147.281 54.6968 152.27 55.8088L172.55 60.3288C186.843 63.5147 195.35 78.249 190.962 92.2206L184.737 112.043C183.206 116.92 183.206 122.148 184.737 127.024L190.962 146.847C195.35 160.819 186.843 175.553 172.55 178.739L152.27 183.259C147.281 184.371 142.753 186.985 139.296 190.749L125.242 206.052C115.336 216.838 98.3222 216.838 88.4163 206.052L74.362 190.749C70.9047 186.985 66.3767 184.371 61.388 183.259L41.1084 178.739C26.8147 175.553 18.3079 160.819 22.6957 146.847L28.921 127.024C30.4524 122.148 30.4524 116.92 28.921 112.043L22.6957 92.2206C18.3079 78.2489 26.8147 63.5147 41.1084 60.3288L61.388 55.8088C66.3767 54.6968 70.9047 52.0826 74.362 48.3182L88.4163 33.0156Z" fill="url(#paint3_linear)" fill-opacity="0.3"/>
</svg>
