<?xml version="1.0" encoding="utf-8"?>
<!-- Svg Vector Icons : http://www.onlinewebfonts.com/icon -->
<!DOCTYPE svg PUBLIC "-//W3C//DTD SVG 1.1//EN" "http://www.w3.org/Graphics/SVG/1.1/DTD/svg11.dtd">
<svg version="1.1" xmlns="http://www.w3.org/2000/svg" xmlns:xlink="http://www.w3.org/1999/xlink" x="0px" y="0px" viewBox="0 0 1000 1000" enable-background="new 0 0 1000 1000" xml:space="preserve">
<metadata> Svg Vector Icons : http://www.onlinewebfonts.com/icon </metadata>
<g><path d="M504.5,63.4L10,488.6l29.6,34.4l464.6-399.5l455.8,399.4l29.9-34.1L504.5,63.4z"/><path d="M826.8,842.1c0,27-22,49-49,49H630.4V614.4H356v276.8H208.6c-27,0-49-22-49-49V520.9h-45.4v321.3c0,52.1,42.3,94.4,94.4,94.4h569.3c52.1,0,94.4-42.4,94.4-94.4V520.9h-45.4L826.8,842.1L826.8,842.1z M401.4,659.8H585v231.4H401.4V659.8z"/></g>
</svg>