<svg id="Capa_1" enable-background="new 0 0 512 512" height="512" viewBox="0 0 512 512" width="512" xmlns="http://www.w3.org/2000/svg"><g><g><path d="m297.149 384.25c-.332 0-.668-.021-1.006-.066-4.244-.551-7.238-4.437-6.687-8.681l30.223-232.947c.55-4.244 4.434-7.242 8.681-6.687 4.244.551 7.238 4.437 6.687 8.681l-30.223 232.947c-.507 3.906-3.839 6.753-7.675 6.753z" fill="#7e707d"/></g><g><path d="m249.061 164.365c-.245 0-.493-.012-.743-.036-4.309-.414-7.412-4.564-6.935-8.867l2.303-20.785c.467-4.217 4.124-7.534 8.353-7.194 4.376.352 7.566 4.245 7.086 8.577l-2.372 21.409c-.439 3.963-3.795 6.896-7.692 6.896z" fill="#7e707d"/></g><g><path d="m152.651 153.738c-.259 0-.521-.013-.785-.04-4.285-.435-7.364-4.611-6.89-8.892l2.335-21.08c.472-4.253 14.644-7.368 18.89-6.895 4.254.471-3.016 4.349-3.487 8.602l-2.372 21.409c-.438 3.963-3.794 6.896-7.691 6.896z" fill="#7e707d"/></g><g><path d="m410.72 182.171c-.835 0-1.687-.133-2.57-.45-3.461-1.244-5.503-4.842-5.103-8.499l2.304-21.053c.466-4.254 4.296-7.337 8.545-6.859 4.254.465 7.325 4.291 6.859 8.545l-2.343 21.409c-.433 3.968-3.791 6.907-7.692 6.907z" fill="#7e707d"/></g><g><path d="m497.331 191.122c-.246 0-.493-.012-.743-.036-4.309-.414-7.412-4.564-6.935-8.867l2.339-21.109c.472-4.253-2.545-8.543 1.708-8.068 4.253.471 14.166 5.521 13.695 9.775l-2.372 21.409c-.44 3.963-3.796 6.896-7.692 6.896z" fill="#7e707d"/></g><g><path clip-rule="evenodd" d="m507.443 163.41c-11.744-64.519-62.76-133.372-155.919-147.84 14.586 47.586 13.553 88.911 61.735 137.472z" fill="#fe8d94" fill-rule="evenodd"/></g><g><path clip-rule="evenodd" d="m75.269 391.73c5.301 8.903 13.091 17.338 20.881 23.195 11.451-7.79 31.277-5.389 45.013-10.953-7.322-8.435-52.276-110.558-39.068-118.553-36.754 21.965-48.762 69.527-26.826 106.311z" fill="#fe8d94" fill-rule="evenodd"/></g><g><path clip-rule="evenodd" d="m160.608 341.708c8.464 14.233 21.994 35.32 26.152 51.808 9.284-1.728 24.366-7.468 28.964-17.953.088-.351.439-1.376.556-1.728 5.857-19.974 3.69-42.261-7.819-61.532-21.906-36.784-69.467-48.821-106.25-26.944 14.937-8.814 36.491 19.623 58.397 56.349z" fill="#fe8d94" fill-rule="evenodd"/></g><g><path clip-rule="evenodd" d="m192.178 378.726c7.732-1.347 15.58-2.372 23.546-3.163.088-.351.439-1.376.556-1.728 5.857-19.974 3.69-42.261-7.819-61.532-20.881-35.056-65.044-47.65-100.978-29.814 29.579-3.661 59.949 9.987 76.202 37.253 11.012 18.481 13.443 39.655 8.493 58.984z" fill="#ff6d75" fill-rule="evenodd"/></g><g><path clip-rule="evenodd" d="m114.834 368.125c5.271 8.815 10.982 16.811 16.839 23.752.498.586 1.904 2.431 2.401 3.017 22.433 11.041 39.155 2.226 53.301-15.317-.117-.469-.439-2.021-.586-2.489-3.368-12.652-9.401-26.944-17.894-41.177-21.906-36.755-51.748-59.364-66.684-50.549-.029 0-.029.029-.059.029-.029.029-.029.029-.059.029-14.846 8.96-9.165 45.95 12.741 82.705z" fill="#ccf49f" fill-rule="evenodd"/></g><g><path clip-rule="evenodd" d="m266.243 439.731c48.966 13.706 105.43.556 153.02.469 40.918-.057 75.246 9.591 92.526 54.331.783 2.026-.727 4.214-2.899 4.214h-505.78c-1.841 0-3.299-1.597-3.091-3.426 2.658-23.349 40.644-50.371 98.473-62.791l-.029.029c45.716-9.84 103.819-10.543 166.755 6.882.322.087.673.204 1.025.292z" fill="#a0ddfa" fill-rule="evenodd"/></g><g><path clip-rule="evenodd" d="m251.424 135.206c42.368-22.978 75.939-74.634 90.201-120.955-1.213 3.941-8.171-.761-12.154-.996h-23.634c-80.097 4.569-135.419 55.733-158.525 110.47z" fill="#fe8d94" fill-rule="evenodd"/></g><g><path clip-rule="evenodd" d="m413.259 153.042c4.656-43.11-14.262-103.412-61.735-137.472-3.251-.498-6.531-.937-9.899-1.318-53.828 22.961-85.457 77.844-90.201 120.955l75.939 8.347 85.691 9.46z" fill="#a0ddfa" fill-rule="evenodd"/></g><g><path clip-rule="evenodd" d="m460.351 158.226 47.092 5.184c-11.744-64.519-62.76-133.372-155.919-147.84 70.638 33.445 97.083 78.049 108.827 142.656z" fill="#ff6d75" fill-rule="evenodd"/></g><g><path clip-rule="evenodd" d="m98.463 432.556c45.716-9.84 103.819-10.543 166.755 6.882l1.025.293c48.966 13.706 105.43.556 153.02.469 13.442 0 26.152 1.025 37.808 3.983-38.511-37.516-97.874-60.243-159.931-67.682-27.148-3.251-54.794-3.602-81.415-.937-9.606.937-19.094 2.284-28.349 4.012-18.802 3.485-36.754 8.581-53.301 15.317-13.735 5.565-26.475 12.242-37.925 20.032-11.392 7.79-21.467 16.664-29.93 26.68 9.869-3.514 20.676-6.59 32.273-9.079z" fill="#fde588" fill-rule="evenodd"/></g><g><path clip-rule="evenodd" d="m385.906 441.781c11.451-.879 22.638-1.552 33.357-1.582 13.442 0 26.152 1.025 37.808 3.983-38.511-37.516-97.874-60.243-159.931-67.682-27.148-3.251-54.794-3.602-81.415-.937-9.606.937-19.094 2.284-28.349 4.012-11.773 2.196-23.195 5.008-34.177 8.464 2.519-.322 5.066-.586 7.614-.849 26.65-2.636 54.267-2.314 81.415.937 53.887 6.473 105.752 24.484 143.678 53.654zm-318.34-1.728c-.469.527-.908 1.054-1.347 1.552 2.109-.732 4.246-1.464 6.414-2.167-1.699.205-3.397.41-5.067.615z" fill="#fdd76f" fill-rule="evenodd"/></g><g><path clip-rule="evenodd" d="m378.203 498.744h114.831 15.857c2.17 0 3.682-2.183 2.9-4.207-11.604-30.053-30.912-44.276-54.721-50.354-11.656-2.958-24.366-3.983-37.808-3.983-10.719.029-21.906.703-33.357 1.582-18.977 1.494-38.687 3.514-58.25 4.042 22.229 7.203 40.035 22.52 50.548 52.92z" fill="#75cef9" fill-rule="evenodd"/></g></g></svg>