<?xml version="1.0" encoding="iso-8859-1"?>
<!-- Generator: Adobe Illustrator 19.0.0, SVG Export Plug-In . SVG Version: 6.00 Build 0)  -->
<svg version="1.1" id="Capa_1" xmlns="http://www.w3.org/2000/svg" xmlns:xlink="http://www.w3.org/1999/xlink" x="0px" y="0px"
	 viewBox="0 0 512 512" style="enable-background:new 0 0 512 512;" xml:space="preserve">
<polyline style="fill:#C9E4FF;" points="242.35,71.723 388.338,264.854 242.35,264.854 "/>
<polyline style="fill:#F2FBFF;" points="242.35,32.691 70.511,293.746 242.35,293.746 "/>
<polyline style="fill:#605D9C;" points="390.62,388.229 345.758,328.722 119.173,328.722 103.961,376.931 "/>
<polygon style="fill:#EF6A87;" points="504.393,356.097 466.8,451.896 450.689,492.957 41.619,492.957 7.604,381.95 
	103.961,376.931 "/>
<path style="fill:#DD578F;" d="M466.8,451.896l-16.11,41.061H41.619L7.604,381.95l96.357-5.019
	C103.961,412.102,226.029,477.151,466.8,451.896z"/>
<path style="fill:#88C9DB;" d="M7.604,508.167h496.792v-19.26c-49.679,0-49.679-22.305-99.368-22.305
	c-1.034,0-2.048,0.01-3.042,0.03c-46.658,0.892-47.671,22.274-96.316,22.274c-49.679,0-49.679-22.305-99.358-22.305
	c-48.645,0-49.659,21.382-96.306,22.274c-0.994,0.02-2.018,0.03-3.052,0.03c-49.669,0-49.669-22.305-99.348-22.305L7.604,508.167z"
	/>
<circle style="fill:#605D9C;" cx="418.753" cy="406.282" r="15.207"/>
<path d="M504.396,481.303c-23.21,0-34.554-5.093-46.564-10.484c-12.945-5.811-26.33-11.821-52.804-11.821
	c-1.086,0-2.152,0.011-3.188,0.032c-24.384,0.466-37.204,6.222-49.604,11.788c-12.011,5.392-23.354,10.484-46.567,10.484
	c-23.211,0-34.554-5.093-46.564-10.485c-12.943-5.81-26.326-11.82-52.793-11.82c-26.47,0-39.854,6.009-52.796,11.82
	c-11.51,5.168-22.382,10.049-43.666,10.456c-0.943,0.019-1.914,0.028-2.896,0.028c-23.205,0-34.546-5.093-46.553-10.484
	c-12.943-5.811-26.326-11.821-52.794-11.821c-4.2,0-7.604,3.405-7.604,7.604c0,4.199,3.404,7.604,7.604,7.604
	c23.212,0,34.555,5.094,46.565,10.486c12.94,5.81,26.321,11.819,52.783,11.819c1.087,0,2.164-0.01,3.197-0.031
	c24.378-0.466,37.197-6.222,49.595-11.787c12.01-5.393,23.353-10.485,46.566-10.485c23.211,0,34.554,5.093,46.564,10.485
	c12.943,5.81,26.326,11.819,52.793,11.819c26.469,0,39.853-6.008,52.796-11.819c11.512-5.169,22.387-10.05,43.676-10.457
	c0.944-0.019,1.905-0.029,2.886-0.029c23.216,0,34.563,5.094,46.574,10.486c12.943,5.81,26.326,11.819,52.792,11.819
	c4.2,0,7.604-3.405,7.604-7.604C512,484.707,508.597,481.303,504.396,481.303z"/>
<path d="M18.736,444.248c1.003,3.274,4.014,5.38,7.267,5.379c0.738,0,1.488-0.108,2.229-0.336c4.016-1.23,6.274-5.482,5.044-9.498
	l-15.548-50.757l29.926-1.557c4.194-0.218,7.416-3.795,7.199-7.988c-0.219-4.195-3.815-7.414-7.989-7.198l-39.656,2.064
	c-2.339,0.122-4.491,1.314-5.835,3.232c-1.342,1.918-1.727,4.349-1.04,6.588L18.736,444.248z"/>
<path d="M68.08,378.803c0.219,4.194,3.807,7.42,7.989,7.198l416.936-21.698L457.967,453.6c-1.535,3.909,0.391,8.322,4.301,9.856
	c0.911,0.358,1.851,0.527,2.775,0.527c3.035,0,5.905-1.831,7.08-4.829l39.348-100.28c0.945-2.406,0.602-5.126-0.908-7.223
	c-1.511-2.097-3.993-3.279-6.565-3.148L75.279,370.815C71.085,371.033,67.863,374.609,68.08,378.803z"/>
<path d="M48.154,301.35h186.592v19.768H119.173c-3.317,0-6.253,2.151-7.251,5.316l-6.523,20.672
	c-1.263,4.005,0.958,8.276,4.964,9.539c0.761,0.24,1.532,0.355,2.29,0.355c3.23,0,6.226-2.074,7.249-5.318l4.845-15.356h217.222
	l9.438,12.518c2.528,3.353,7.297,4.022,10.649,1.494c3.354-2.529,4.023-7.296,1.494-10.65l-11.719-15.544
	c-1.437-1.905-3.684-3.026-6.071-3.026h-95.804v-48.662h158.152c4.2,0,7.604-3.405,7.604-7.604c0-4.199-3.404-7.604-7.604-7.604
	h-15.984l-85.788-113.491c-2.533-3.351-7.302-4.013-10.652-1.48c-3.351,2.533-4.013,7.301-1.481,10.651l78.857,104.321H249.954
	V94.393l26.882,35.563c1.496,1.978,3.771,3.019,6.072,3.019c1.597,0,3.207-0.502,4.58-1.539c3.351-2.533,4.013-7.301,1.481-10.651
	l-39.014-51.613V11.437c0-4.199-3.404-7.604-7.604-7.604s-7.604,3.405-7.604,7.604v18.975L66.413,286.143H48.154
	c-4.2,0-7.604,3.405-7.604,7.604C40.55,297.946,43.955,301.35,48.154,301.35z M234.746,58.073v228.071H84.62L234.746,58.073z"/>
<path d="M395.941,406.279c0,12.578,10.233,22.812,22.811,22.812c12.578,0,22.811-10.233,22.811-22.812
	c0-12.578-10.233-22.811-22.811-22.811C406.174,383.469,395.941,393.701,395.941,406.279z M426.355,406.279
	c0,4.192-3.411,7.604-7.603,7.604s-7.603-3.411-7.603-7.604c0-4.192,3.411-7.603,7.603-7.603S426.355,402.087,426.355,406.279z"/>
<g>
</g>
<g>
</g>
<g>
</g>
<g>
</g>
<g>
</g>
<g>
</g>
<g>
</g>
<g>
</g>
<g>
</g>
<g>
</g>
<g>
</g>
<g>
</g>
<g>
</g>
<g>
</g>
<g>
</g>
</svg>
