<svg id="Capa_1" enable-background="new 0 0 512 512" height="512" viewBox="0 0 512 512" width="512" xmlns="http://www.w3.org/2000/svg"><path d="m132.335 445.811c6.336-8.027 10.132-18.148 10.132-29.144 0-25.989-21.144-47.133-47.133-47.133s-47.134 21.143-47.134 47.133c0 10.997 3.796 21.117 10.132 29.144-15.857 11.494-26.199 30.151-26.199 51.189 0 8.284 6.716 15 15 15s15-6.716 15-15c0-18.307 14.894-33.2 33.2-33.2s33.2 14.894 33.2 33.2c0 8.284 6.716 15 15 15s15-6.716 15-15c0-21.038-10.342-39.695-26.198-51.189zm-54.135-29.144c0-9.447 7.686-17.133 17.133-17.133s17.133 7.686 17.133 17.133-7.685 17.133-17.133 17.133-17.133-7.686-17.133-17.133z"/><path d="m293.001 445.811c6.336-8.027 10.132-18.148 10.132-29.144 0-25.989-21.145-47.133-47.134-47.133s-47.133 21.144-47.133 47.133c0 10.997 3.796 21.117 10.132 29.144-15.856 11.494-26.198 30.151-26.198 51.189 0 8.284 6.716 15 15 15s15-6.716 15-15c0-18.307 14.894-33.2 33.2-33.2s33.2 14.894 33.2 33.2c0 8.284 6.716 15 15 15s15-6.716 15-15c0-21.038-10.342-39.695-26.199-51.189zm-54.134-29.144c0-9.447 7.686-17.133 17.133-17.133s17.134 7.686 17.134 17.133-7.687 17.133-17.134 17.133-17.133-7.686-17.133-17.133z"/><path d="m453.668 445.811c6.336-8.027 10.132-18.148 10.132-29.144 0-25.989-21.144-47.133-47.133-47.133s-47.134 21.144-47.134 47.133c0 10.997 3.796 21.117 10.132 29.144-15.857 11.494-26.199 30.151-26.199 51.189 0 8.284 6.716 15 15 15s15-6.716 15-15c0-18.307 14.894-33.2 33.2-33.2s33.199 14.894 33.199 33.2c0 8.284 6.716 15 15 15s15-6.716 15-15c.001-21.038-10.341-39.695-26.197-51.189zm-54.135-29.144c0-9.447 7.687-17.133 17.134-17.133s17.133 7.686 17.133 17.133-7.686 17.133-17.133 17.133-17.134-7.686-17.134-17.133z"/><path d="m175.667 94.267h160.667c8.284 0 15-6.716 15-15s-6.716-15-15-15h-160.667c-8.284 0-15 6.716-15 15s6.715 15 15 15z"/><path d="m351.333 143.533c0-8.284-6.716-15-15-15h-160.666c-8.284 0-15 6.716-15 15s6.716 15 15 15h160.667c8.283 0 14.999-6.716 14.999-15z"/><path d="m497 64.267h-81.4v-49.267c0-8.284-6.716-15-15-15h-289.2c-8.284 0-15 6.716-15 15v49.267h-81.4c-8.284 0-15 6.716-15 15v192.8c0 8.284 6.716 15 15 15h25.92l43.807 43.806c2.929 2.929 6.768 4.394 10.606 4.394s7.678-1.464 10.606-4.394l43.807-43.806h25.92c8.284 0 15-6.716 15-15v-49.267h10.92l43.807 43.807c2.929 2.929 6.768 4.393 10.607 4.393s7.678-1.464 10.606-4.394l43.807-43.807h10.92v49.267c0 8.284 6.716 15 15 15h25.921l43.807 43.806c2.813 2.813 6.628 4.394 10.606 4.394s7.794-1.581 10.606-4.394l43.806-43.806h25.921c8.284 0 15-6.716 15-15v-192.8c0-8.284-6.716-14.999-15-14.999zm-336.333 192.8h-17.133c-3.978 0-7.793 1.581-10.606 4.394l-37.593 37.593-37.595-37.594c-2.813-2.813-6.628-4.394-10.606-4.394h-17.134v-162.8h66.4v34.267h-17.133c-8.284 0-15 6.716-15 15s6.716 15 15 15h17.133v34.267h-17.133c-8.284 0-15 6.716-15 15s6.716 15 15 15h81.4zm143.533-64.267c-3.979 0-7.794 1.581-10.606 4.394l-37.594 37.593-37.594-37.593c-2.813-2.813-6.628-4.394-10.606-4.394h-81.4v-162.8h259.2v162.8zm177.8 64.267h-17.134c-3.979 0-7.794 1.581-10.606 4.394l-37.593 37.593-37.594-37.593c-2.813-2.813-6.628-4.394-10.606-4.394h-17.134v-34.267h81.4c8.284 0 15-6.716 15-15s-6.716-15-15-15h-17.133v-34.267h17.134c8.284 0 15-6.716 15-15s-6.716-15-15-15h-17.134v-34.266h66.4z"/></svg>