<svg width="4736" height="959" viewBox="0 0 4736 959" fill="none" xmlns="http://www.w3.org/2000/svg">
<path d="M411.851 128.093V132.609C411.851 144.651 411.851 154.887 411.851 163.317C411.851 171.747 412.454 179.273 413.658 185.897C415.464 192.52 417.873 198.842 420.883 204.863C423.894 210.885 428.711 217.508 435.334 224.733C450.989 244.001 469.053 261.463 489.525 277.118C510.599 292.171 532.276 305.719 554.554 317.761C577.435 329.804 600.316 340.04 623.196 348.47C646.077 356.899 667.753 363.824 688.225 369.243L669.259 408.983C649.389 404.768 626.508 397.844 600.617 388.21C574.725 377.973 548.533 365.63 522.04 351.179C495.546 336.728 470.257 320.471 446.172 302.407C422.088 283.741 401.916 263.871 385.659 242.797C370.606 264.473 351.338 284.042 327.855 301.504C304.975 318.966 280.589 334.621 254.698 348.47C228.806 362.318 202.614 374.361 176.121 384.597C149.627 394.231 125.542 401.757 103.866 407.176L80.3833 366.533C131.564 352.684 179.432 334.019 223.989 310.536C269.149 287.053 304.975 259.054 331.468 226.54C343.511 212.691 350.435 199.143 352.241 185.897C354.048 172.048 354.951 154.586 354.951 133.512V128.093H126.446V88.3528H643.066V128.093H411.851ZM413.658 536.332V816.318H359.467V536.332H22.5796V496.592H746.029V536.332H413.658ZM1383.28 518.268V92.8687H1318.25V54.935H1437.47V518.268H1383.28ZM783.568 446.013C830.533 424.337 869.069 399.048 899.175 370.146C929.281 340.642 952.162 309.934 967.817 278.021C976.247 261.162 982.569 241.292 986.784 218.411C990.999 194.928 993.106 172.65 993.106 151.576V75.7082H1048.2V150.672C1048.2 175.962 1050.01 197.638 1053.62 215.702C1057.83 233.765 1064.46 251.528 1073.49 268.989C1082.52 286.451 1093.66 302.708 1106.91 317.761C1120.15 332.212 1134.91 345.76 1151.16 358.405C1167.42 371.049 1184.58 383.092 1202.64 394.532C1221.31 405.37 1239.98 416.509 1258.64 427.95L1236.06 463.174C1189.1 439.089 1146.95 412.595 1109.62 383.694C1072.29 354.19 1043.38 321.976 1022.91 287.053C1009.66 312.342 994.611 335.223 977.752 355.695C960.893 376.167 943.13 394.532 924.464 410.789C905.798 427.046 886.531 441.497 866.661 454.142C846.79 466.184 827.523 476.721 808.857 485.753L783.568 446.013ZM1437.47 854.252H1383.28V600.458H922.658V560.718H1437.47V854.252ZM1576.17 368.34C1576.17 327.997 1578.88 290.365 1584.3 255.442C1590.32 219.916 1600.25 189.208 1614.1 163.317C1627.95 136.824 1646.62 116.05 1670.1 100.997C1693.58 85.3422 1723.08 77.5146 1758.61 77.5146C1803.77 77.5146 1839.29 89.8581 1865.19 114.545C1891.08 139.232 1909.74 172.048 1921.18 212.992H2034.08V92.8687H1995.24V54.935H2088.27V743.16H2034.08V500.204H1926.6C1921.79 523.687 1914.86 545.062 1905.83 564.33C1896.8 582.996 1885.36 599.253 1871.51 613.102C1858.26 626.349 1842.31 636.886 1823.64 644.714C1804.97 651.939 1783.3 655.552 1758.61 655.552C1723.08 655.552 1693.58 648.025 1670.1 632.972C1646.62 617.919 1627.95 597.447 1614.1 571.556C1600.25 545.062 1590.32 514.655 1584.3 480.334C1578.88 445.411 1576.17 408.08 1576.17 368.34ZM1630.36 368.34C1630.36 402.058 1631.86 433.971 1634.87 464.077C1638.49 493.581 1645.11 519.773 1654.74 542.654C1664.38 564.932 1677.32 582.695 1693.58 595.942C1710.44 609.188 1732.12 615.812 1758.61 615.812C1784.5 615.812 1805.58 609.188 1821.83 595.942C1838.69 582.695 1851.64 564.932 1860.67 542.654C1870.3 519.773 1876.63 493.581 1879.64 464.077C1883.25 433.971 1885.06 402.058 1885.06 368.34C1885.06 334.621 1883.25 302.708 1879.64 272.602C1876.63 241.894 1870.3 215.401 1860.67 193.122C1851.64 170.241 1838.69 152.178 1821.83 138.931C1805.58 125.684 1784.5 119.061 1758.61 119.061C1732.12 119.061 1710.44 125.684 1693.58 138.931C1677.32 152.178 1664.38 170.241 1654.74 193.122C1645.11 215.401 1638.49 241.894 1634.87 272.602C1631.86 302.708 1630.36 334.621 1630.36 368.34ZM2171.36 743.16V92.8687H2132.53V54.935H2225.56V743.16H2171.36ZM1939.25 368.34C1939.25 400.854 1937.44 431.562 1933.83 460.464H2034.08V252.732H1930.21C1933.23 270.194 1935.33 288.859 1936.54 308.729C1938.34 327.997 1939.25 347.867 1939.25 368.34ZM2719.2 156.995C2720.41 166.629 2722.51 174.757 2725.52 181.381C2728.53 187.402 2734.25 195.53 2742.68 205.767C2758.34 225.034 2776.1 241.894 2795.97 256.345C2815.84 270.796 2836.31 283.44 2857.39 294.279C2879.07 305.117 2900.74 314.45 2922.42 322.277C2944.7 329.503 2966.07 335.825 2986.54 341.244L2967.58 381.887C2947.71 377.672 2925.13 371.049 2899.84 362.017C2875.15 352.383 2850.16 340.943 2824.87 327.696C2799.59 313.847 2775.2 298.192 2751.72 280.731C2728.84 262.667 2709.27 243.098 2693.01 222.024C2677.96 243.7 2659.29 262.968 2637.01 279.828C2614.73 296.687 2591.25 311.439 2566.56 324.084C2541.88 336.728 2516.59 347.566 2490.7 356.598C2465.41 365.028 2441.92 371.952 2420.25 377.371L2396.77 335.825C2447.95 323.18 2494.31 306.622 2535.86 286.15C2578 265.678 2612.33 239.485 2638.82 207.573C2646.04 197.939 2651.16 189.509 2654.17 182.284C2657.79 175.058 2660.19 166.629 2661.4 156.995H2433.8V117.255H2662.3V36.8714H2719.2V117.255H2950.42V156.995H2719.2ZM2948.61 853.349H2894.42V627.553H2426.57V587.813H2948.61V853.349ZM2330.83 485.753V446.013H3055.19V485.753H2330.83ZM3158.66 99.191H3551.54V187.703C3551.54 196.735 3550.94 210.885 3549.73 230.153C3549.13 249.42 3547.63 270.495 3545.22 293.375C3542.81 316.256 3539.5 339.438 3535.28 362.92C3531.67 385.801 3526.85 405.972 3520.83 423.434L3475.67 412.596C3478.68 396.94 3481.7 379.479 3484.71 360.211C3487.72 340.943 3490.43 318.664 3492.83 293.375L3147.82 311.439V271.699L3495.54 253.635C3496.15 245.206 3496.45 236.776 3496.45 228.346C3497.05 219.314 3497.35 210.282 3497.35 201.251V138.931H3158.66V99.191ZM3711.4 739.548V89.256H3645.47V51.3223H3764.69V739.548H3711.4ZM3384.45 508.333V743.16H3330.26V511.946L3105.37 522.784V483.044L3635.54 454.142V494.785L3384.45 508.333ZM4257.44 142.544V175.058C4257.44 187.101 4257.74 197.939 4258.34 207.573C4258.94 216.605 4260.14 225.034 4261.95 232.862C4263.76 240.69 4266.17 248.517 4269.18 256.345C4272.19 263.57 4276.1 271.398 4280.92 279.828C4292.36 299.095 4306.81 317.761 4324.27 335.825C4342.33 353.889 4362.2 371.049 4383.88 387.306C4405.56 402.962 4428.14 417.412 4451.62 430.659C4475.1 443.304 4498.28 454.142 4521.16 463.174L4498.59 501.107C4473.3 492.678 4447.4 481.237 4420.91 466.786C4394.42 451.733 4368.83 435.175 4344.14 417.111C4320.06 399.048 4298.08 379.78 4278.21 359.308C4258.34 338.836 4242.68 318.664 4231.24 298.794C4221.01 319.869 4205.05 340.943 4183.37 362.017C4162.3 383.092 4138.82 402.962 4112.93 421.627C4087.64 439.691 4061.75 455.948 4035.25 470.399C4008.76 484.85 3984.67 495.688 3963 502.914L3937.71 463.174C3963.6 454.142 3988.89 442.401 4013.58 427.95C4038.86 413.499 4062.35 398.145 4084.02 381.887C4105.7 365.028 4124.67 347.867 4140.92 330.406C4157.18 312.944 4169.22 296.085 4177.05 279.828C4185.48 262.968 4191.5 246.711 4195.12 231.056C4198.73 215.401 4200.53 197.036 4200.53 175.962V142.544H3972.03V102.804H4488.65V142.544H4257.44ZM3868.16 694.389V654.649H4592.52V694.389H3868.16Z" fill="black"/>
</svg>
