<svg width="1720" height="1768" viewBox="0 0 1720 1768" fill="none" xmlns="http://www.w3.org/2000/svg">
<path d="M574 487L593 240H444L457 102H781L751 487H574ZM516 689H830V544H23V689H333V955H516V689ZM201 487L233 240H63V102H419L378 487H201ZM1370.52 955H1187.52V751H877.516V606H1684.52V751H1370.52V955ZM920.516 317C920.516 277 926.516 243 938.516 215C951.182 187 967.849 164.333 988.516 147C1009.85 129 1034.52 116 1062.52 108C1091.18 99.3333 1121.85 95 1154.52 95C1183.18 94.3333 1206.52 94 1224.52 94C1243.18 93.3333 1260.52 93 1276.52 93C1293.18 93 1310.52 93.3333 1328.52 94C1347.18 94 1370.85 94.3333 1399.52 95C1431.52 95.6666 1461.85 100.333 1490.52 109C1519.18 117 1544.18 130 1565.52 148C1586.85 165.333 1603.52 188 1615.52 216C1628.18 243.333 1634.52 277 1634.52 317C1634.52 357 1628.18 391 1615.52 419C1603.52 447 1586.85 470 1565.52 488C1544.18 505.333 1519.18 518.333 1490.52 527C1462.52 535 1432.52 539.333 1400.52 540C1373.85 540.667 1351.18 541.333 1332.52 542C1314.52 542 1296.85 542 1279.52 542C1262.85 542 1244.85 542 1225.52 542C1206.85 541.333 1183.18 540.667 1154.52 540C1121.18 539.333 1090.18 535 1061.52 527C1033.52 518.333 1008.85 505.333 987.516 488C966.849 470 950.516 447 938.516 419C926.516 391 920.516 357 920.516 317ZM1079.52 317C1079.52 333.667 1082.18 347.333 1087.52 358C1093.52 368 1101.18 376 1110.52 382C1120.52 388 1131.85 392.333 1144.52 395C1157.85 397.667 1171.52 399.333 1185.52 400C1204.85 401.333 1221.85 402 1236.52 402C1251.18 402 1265.18 402 1278.52 402C1291.85 402 1305.52 402 1319.52 402C1333.52 401.333 1350.18 400.667 1369.52 400C1383.52 400 1396.85 398.667 1409.52 396C1422.18 393.333 1433.18 389 1442.52 383C1452.52 377 1460.18 368.667 1465.52 358C1471.52 347.333 1474.52 333.667 1474.52 317C1474.52 300.333 1471.52 286.667 1465.52 276C1460.18 265.333 1452.52 257 1442.52 251C1432.52 245 1421.18 241 1408.52 239C1395.85 236.333 1382.52 235 1368.52 235C1350.52 234.333 1334.52 234 1320.52 234C1306.52 233.333 1292.85 233 1279.52 233C1266.18 233 1251.85 233.333 1236.52 234C1221.85 234 1204.85 234.333 1185.52 235C1171.52 235.667 1157.85 237.333 1144.52 240C1131.85 242 1120.52 246 1110.52 252C1101.18 258 1093.52 266.333 1087.52 277C1082.18 287 1079.52 300.333 1079.52 317Z" fill="black"/>
<path d="M992.706 866.833H1624.03L1569.84 1410.55H1415.4L1458.75 991.472H992.706V866.833Z" fill="black"/>
</svg>
