<?xml version="1.0" encoding="iso-8859-1"?>
<!-- Generator: Adobe Illustrator 19.0.0, SVG Export Plug-In . SVG Version: 6.00 Build 0)  -->
<svg version="1.1" id="Layer_1" xmlns="http://www.w3.org/2000/svg" xmlns:xlink="http://www.w3.org/1999/xlink" x="0px" y="0px"
	 viewBox="0 0 512.001 512.001" style="enable-background:new 0 0 512.001 512.001;" xml:space="preserve">
<path style="fill:#50B9FF;" d="M286.026,360.974H76.065c-9.084,0-16.006-8-14.88-16.857
	C83.254,167.651,188.701,75.706,283.99,62.448c15.048-2.122,23.336,17.148,11.365,26.611
	c-34.008,26.919-54.321,66.52-54.321,105.947c0,46.075,22.174,115.075,53.999,138.977
	C306.534,342.641,300.363,360.974,286.026,360.974z"/>
<path style="fill:#48A7E6;" d="M449.106,338.699L299.134,67.75c-2.727-4.917-7.852-7.488-13.107-7.503v300.727h149.972
	c5.316,0,10.237-2.812,12.933-7.396C451.624,349.009,451.683,343.341,449.106,338.699z"/>
<path style="fill:#DB632C;" d="M346.014,90.026h-59.989V0.043h119.977c8.231,0,14.982,6.638,14.996,14.868
	C421.07,56.315,387.402,90.026,346.014,90.026z"/>
<path style="fill:#5C5F66;" d="M286.026,420.963c-8.289,0-14.997-6.708-14.997-14.997V15.04c0-8.289,6.708-14.997,14.997-14.997
	c8.289,0,14.997,6.708,14.997,14.997v390.926C301.023,414.255,294.315,420.963,286.026,420.963z"/>
<path style="fill:#53565C;" d="M301.023,405.966V15.04c0-8.289-6.708-14.997-14.997-14.997v420.92
	C294.315,420.963,301.023,414.255,301.023,405.966z"/>
<path style="fill:#EC7838;" d="M465.992,390.969H46.071c-10.242,0-17.466,10.071-14.221,19.742l16.315,49.961
	c4.035,12.105,10.911,22.719,19.914,31.12l95.478-29.547l92.449,30.427l97.507-29.537l88.498,30.409
	c9.974-8.67,17.566-19.934,21.884-32.872l16.315-49.961C483.457,401.04,476.235,390.969,465.992,390.969z"/>
<path style="fill:#DB632C;" d="M465.992,390.969H286.026v92.61l67.489-20.445l88.498,30.41c9.974-8.67,17.566-19.934,21.884-32.872
	l16.315-49.961C483.457,401.04,476.235,390.969,465.992,390.969z"/>
<path style="fill:#5AF1FF;" d="M503.583,485.851c-4.198,1.8-8.097,4.198-11.697,7.199c-16.198,12.597-35.094,18.896-54.29,18.896
	c-18.896,0-37.793-4.8-53.991-17.398c-21.895-16.797-49.79-16.797-71.685,0c-7.199,5.699-15.898,9.899-24.896,12.898
	c-9.598,3-19.795,4.5-29.994,4.5c-19.196,0-38.692-5.999-53.391-17.398c-21.895-16.797-49.79-16.797-71.685,0
	c-16.198,12.597-35.094,17.698-54.29,17.398c-18.896-0.3-39.792-6.3-55.99-18.896c-4.198-3.299-8.397-5.699-12.898-7.799
	c-7.499-3.299-10.798-12.297-7.499-19.795c3.599-7.499,12.299-10.799,20.097-7.499c6.298,2.998,14.596,6.598,20.596,11.396
	c20.396,15.898,51.289,17.398,71.685,1.501c32.395-25.196,75.887-25.196,108.28,0c9.298,7.499,22.496,11.098,35.092,11.098
	c10.497,0.3,21.297-2.1,29.994-6.9c2.401-1.199,4.5-2.699,6.598-4.198c32.395-25.196,75.887-25.196,108.28,0
	c21.895,17.097,49.79,15.297,71.685-1.501c5.1-4.198,10.799-7.797,16.799-10.497c7.499-3.599,16.497-0.601,20.095,6.898
	C514.083,473.252,511.082,482.251,503.583,485.851z"/>
<path style="fill:#51DAE6;" d="M503.583,485.851c-4.198,1.8-8.097,4.198-11.697,7.199c-16.198,12.597-35.094,18.896-54.29,18.896
	c-18.896,0-37.793-4.8-53.991-17.398c-21.895-16.797-49.79-16.797-71.685,0c-7.199,5.699-15.898,9.899-24.896,12.898v-32.395
	c2.401-1.199,4.5-2.699,6.598-4.198c32.395-25.196,75.887-25.196,108.28,0c21.895,17.097,49.79,15.297,71.685-1.501
	c5.1-4.198,10.799-7.797,16.799-10.497c7.499-3.599,16.497-0.601,20.095,6.898C514.083,473.252,511.082,482.251,503.583,485.851z"/>
<g>
</g>
<g>
</g>
<g>
</g>
<g>
</g>
<g>
</g>
<g>
</g>
<g>
</g>
<g>
</g>
<g>
</g>
<g>
</g>
<g>
</g>
<g>
</g>
<g>
</g>
<g>
</g>
<g>
</g>
</svg>
