<?xml version="1.0"?>
<svg xmlns="http://www.w3.org/2000/svg" width="512" height="512" viewBox="0 0 128 128"><g><path d="M109.484,74.02,83.76,56.519l1.625-10.876a39.281,39.281,0,0,0-8.239-30.367L65.363.649a1.811,1.811,0,0,0-2.726,0L50.853,15.276a39.285,39.285,0,0,0-8.238,30.367L44.24,56.519,18.516,74.02a1.751,1.751,0,0,0-.766,1.447V90.293a1.75,1.75,0,0,0,1.75,1.75H49.307v7.749a1.749,1.749,0,0,0,1.75,1.75h3v1.767a38.08,38.08,0,0,0,8.583,24.046,1.75,1.75,0,0,0,2.709,0,38.074,38.074,0,0,0,8.583-24.046v-1.767h3.006a1.749,1.749,0,0,0,1.75-1.75V92.043H108.5a1.75,1.75,0,0,0,1.75-1.75V75.467A1.751,1.751,0,0,0,109.484,74.02ZM97.622,88.543H78.974l2.714-18.16,15.934,10.84ZM53.579,17.472,64,4.537,74.421,17.472a35.769,35.769,0,0,1,7.5,27.653L75.435,88.543H52.565l-4.7-31.455h0L46.077,45.125A35.769,35.769,0,0,1,53.579,17.472ZM49.025,88.543H30.378v-7.32l15.934-10.84ZM21.25,76.393,44.815,60.362l.923,6.179L27.644,78.851a1.748,1.748,0,0,0-.766,1.446v8.246H21.25Zm49.187,26.916A34.582,34.582,0,0,1,64,123.369a34.576,34.576,0,0,1-6.438-20.06v-1.767H62.25V109a1.75,1.75,0,0,0,3.5,0v-7.458h4.687Zm4.756-5.267H52.807v-6H75.193Zm31.557-9.5h-5.628V80.3a1.748,1.748,0,0,0-.766-1.446L82.262,66.541l.923-6.18L106.75,76.393Z"/><path d="M64,48.75c5.479,0,9.937-6,9.937-13.375S69.479,22,64,22s-9.938,6-9.938,13.375S58.52,48.75,64,48.75ZM64,25.5c3.489,0,6.437,4.522,6.437,9.875S67.489,45.25,64,45.25s-6.438-4.522-6.438-9.875S60.511,25.5,64,25.5Z"/></g></svg>
