<svg height="512" viewBox="0 0 60 60" width="512" xmlns="http://www.w3.org/2000/svg"><g id="081---Male-User" fill="none"><g id="Icons" transform="translate(1 1)"><path id="Shape" d="m58 29c0 16.0162577-12.9837423 29-29 29-.5 0-1-.01-1.49-.04h-.02c-15.4032699-.8098574-27.4773707-13.5354549-27.4773707-28.96s12.0741008-28.15014261 27.4773707-28.96h.02c.49-.03.99-.04 1.49-.04 16.0162577 0 29 12.9837423 29 29z" fill="#4527a0"/><path id="Shape" d="m55 29c-.0003518 15.4291761-12.0817537 28.1566188-27.49 28.96h-.02c-15.4032699-.8098574-27.4773707-13.5354549-27.4773707-28.96s12.0741008-28.15014261 27.4773707-28.96h.02c15.4082463.80338124 27.4896482 13.5308239 27.49 28.96z" fill="#673ab7"/><path id="Shape" d="m44.94 17.8c-.0100056 2.2100318-.5628793 4.3837526-1.61 6.33l-.01.01c-.0248069-.0223666-.0515822-.042448-.08-.06-.1941453-.0875213-.4089828-.1187074-.62-.09-1.1303009-.1313405-2.1558479.6712614-2.3 1.8-.01-.23-.02-.46-.04-.68-.58-9.13-3.82-10.91-3.82-10.91-2.94 4.8-9.79 5.4-9.79 5.4h-5.22c-2.35 0-4.02.94-4.12 3.09-.0276324.9339118-.0042643 1.8686357.07 2.8-.04-.3-.34-1.5-2.14-1.5-.8424081-2.2704039-1.2888896-4.6685506-1.32-7.09 0-6.6 6.2-12.9 13.71-12.9s10.44 5.1 10.44 5.1h.32s6.53.3 6.53 8.7z" fill="#91562d"/><path id="Shape" d="m43.24 24.08c-.1941453-.0875213-.4089828-.1187074-.62-.09-1.1303009-.1313405-2.1558479.6712614-2.3 1.8v.02c.006.135.009.279.014.417-.014-.382-.03-.76-.054-1.117-.58-9.13-3.82-10.91-3.82-10.91-2.94 4.8-9.79 5.4-9.79 5.4h-5.22c-2.35 0-4.02.94-4.12 3.09-.0233318.9389471.0006987 1.8784734.072 2.815v-.015c-.04-.3-.34-1.5-2.14-1.5-.2110172-.0287074-.4258547.0024787-.62.09-1.39.81-.56 4.97-.56 4.97.2169771 2.1928389 1.6509635 4.076324 3.707 4.869-.1214979 2.2804007.8612912 4.4800472 2.641 5.911.181.164.347.328.51.492v6.678c-1.3701866 1.3164504-2.8159739 2.5518807-4.33 3.7 7.6490587 4.3857762 17.0467822 4.400989 24.71.04-1.5328255-1.1587667-2.9954056-2.4076365-4.38-3.74v-6.678c.163-.164.329-.328.51-.492 1.7804568-1.4305385 2.7640191-3.6302499 2.643-5.911 2.0592443-.7883984 3.4949998-2.6742073 3.707-4.869 0 0 .84-4.16-.56-4.97z" fill="#ffe0b2"/></g><g id="Layer_10" fill="#000"><path id="Shape" d="m30 0c-16.5685425 0-30 13.4314575-30 30s13.4314575 30 30 30 30-13.4314575 30-30c-.018737-16.5607751-13.4392249-29.98126296-30-30zm0 58c-15.463973 0-28-12.536027-28-28s12.536027-28 28-28 28 12.536027 28 28c-.0176345 15.4566626-12.5433374 27.9823655-28 28z"/><path id="Shape" d="m39.639 9.121c-.986-1.363-4.309-5.121-10.989-5.121-7.836 0-14.71 6.5-14.71 13.9.0256036 2.1804012.3830325 4.3441952 1.06 6.417-1.662 1.176-1.138 4.706-.909 5.875.2392024 2.3135902 1.636884 4.3474032 3.711 5.4.122 2.757 1.208 4.332 3.14 6.16v5.818c-1.2376998 1.1793822-2.5425431 2.2862286-3.908 3.315-.2784057.197051-.4371745.5224147-.4211816.8631244.0159929.3407096.2045416.6497703.5001816.8198756 7.95755 4.5624647 17.7342896 4.5776778 25.706.04.2963967-.1700812.4854203-.4797401.5012223-.8211034s-.1438059-.6671606-.4232223-.8638966c-1.3832289-1.0387864-2.7038641-2.1584045-3.955-3.353v-5.818c1.924-1.826 3.017-3.391 3.14-6.159 2.075409-1.0518643 3.4746168-3.0857059 3.715-5.4.2-.994.6-3.7-.3-5.209 3.135-6.592 1.195-15.007-5.858-15.863zm-10.989-3.121c6.788 0 9.465 4.415 9.574 4.6.1786283.3093932.5087435.4999909.866.5h.269c.227.013 5.581.4 5.581 7.7-.0111644 1.7993308-.4166845 3.5743345-1.188 5.2-.065 0-.13-.012-.194-.006-.4936994.0005807-.9824093.0987985-1.438.289-.888-7.9-3.822-9.759-4.176-9.954-.4683221-.2590791-1.0576063-.1034939-1.337.353-2.635 4.3-8.962 4.92-8.937 4.922h-5.22c-3.087 0-5 1.511-5.118 4.038-.008.148-.013.317-.014.5-.1-.027-.2-.059-.3-.078-.685747-1.9840321-1.0496789-4.0649931-1.078-6.164 0-6.228 6.06-11.9 12.71-11.9zm-12.572 23.981c-.0031388-.0426334-.0088155-.085042-.017-.127-.365-1.818-.26-3.669.049-3.875l.109.008c.527.019 1.119.107 1.19.65.013.1.224 3.155.3 3.551.1789106 1.018452.2232901 2.0559904.132 3.086-.9887124-.8305604-1.6199833-2.0096727-1.763-3.293zm24.4 21.607c-6.6514043 3.1773482-14.3857336 3.1626337-21.025-.04 1.554-1.267 3.1-2.747 3.183-2.826.1953072-.1893078.3050746-.4500052.304-.722v-3.894c1.476 2.1 2.418 3.894 5.3 3.894 5.509 0 5.65.446 8.7-3.894v3.894c-.000017.2720909.1108395.532441.307.721.084.079 1.659 1.591 3.228 2.867zm-2.7-11.5c-3.388 3.078-3.427 5.912-6.138 5.912-4.743 0-4.7.418-6.6-2.375-3.688-5.408-5.492-4.1-5.209-10.021.1237514-1.3014248.068233-2.6136784-.165-3.9-.2168645-1.9817065-.3290204-3.9734749-.336-5.967.025-.529.1-2.139 3.121-2.139h5.307c.28-.025 6.449-.616 9.853-4.874.858 1.082 2.3 3.714 2.672 9.452.026.4.121 2.606.084 2.787-.3593707 1.5178042-.4664688 3.0844099-.317 4.637.113 2.376.202 4.248-2.272 6.49zm6.046-10.236c-.0081137.0406244-.0137905.0816978-.017.123-.1435168 1.286052-.7761984 2.4676306-1.767 3.3-.1148323-1.3177375-.0169144-2.6453679.29-3.932.0198886-.0844788.0329309-.1704241.039-.257.018-.289-.026-1.654-.051-2.206.034-.277.229-.892 1.306-.892.037 0 .115.009.173.011.295.401.368 2.14.027 3.855z"/></g></g></svg>