<svg width="512" height="370" viewBox="0 0 512 370" fill="none" xmlns="http://www.w3.org/2000/svg">
<path d="M36.7819 71.419C48.9339 58.161 61.6679 46.231 75.6889 35.155C77.3379 33.853 79.7119 35.412 79.1599 37.439C71.3009 66.324 57.5699 94.87 36.4029 116.091C35.4519 101.235 35.4379 86.255 36.7819 71.419Z" fill="#FF901D"/>
<path d="M36.404 116.102C24.183 101.354 13.681 86.106 4.219 69.644C3.137 67.762 0.259002 68.433 0.149002 70.602C-1.558 104.323 11.326 143.779 42.716 159.693C39.588 145.353 37.334 130.76 36.404 116.102Z" fill="#FF901D"/>
<path d="M42.7141 159.682C50.4051 143.857 59.0141 129.134 69.1051 114.863C70.3021 113.17 72.9871 113.946 73.0741 116.018C74.3031 145.147 69.3051 175.939 55.3481 201.509C50.1741 187.899 45.8101 173.919 42.7141 159.682Z" fill="#FF901D"/>
<path d="M55.3511 201.519C39.4821 191.32 24.986 180.169 11.081 167.643C9.47705 166.198 6.96105 167.707 7.50405 169.796C15.881 202.005 39.837 235.058 73.943 240.896C66.853 228.236 60.5021 215.095 55.3511 201.519Z" fill="#FF901D"/>
<path d="M73.937 240.887C76.717 223.623 80.693 207.154 86.228 190.689C86.886 188.731 89.667 188.693 90.357 190.641C100.037 217.969 103.958 248.8 98.118 277.134C89.24 265.644 81.027 253.569 73.937 240.887Z" fill="#FF901D"/>
<path d="M98.1239 277.143C80.0349 272.018 62.9449 265.609 46.0199 257.753C44.0649 256.845 42.1049 259.021 43.2319 260.858C60.6339 289.237 93.2139 313.807 127.529 309.573C116.995 299.481 107.041 288.7 98.1239 277.143Z" fill="#FF901D"/>
<path d="M127.521 309.566C125.053 292.172 124.004 275.207 124.489 257.768C124.546 255.701 127.198 254.854 128.426 256.518C145.758 280.016 158.688 308.56 161.782 337.499C149.73 329.029 138.158 319.771 127.521 309.566Z" fill="#FF901D"/>
<path d="M475.218 71.419C463.066 58.161 450.332 46.231 436.311 35.155C434.662 33.853 432.288 35.412 432.84 37.439C440.699 66.324 454.43 94.87 475.597 116.091C476.548 101.235 476.562 86.255 475.218 71.419Z" fill="#FF901D"/>
<path d="M475.596 116.102C487.817 101.354 498.319 86.106 507.781 69.644C508.863 67.762 511.741 68.433 511.851 70.602C513.558 104.323 500.674 143.779 469.284 159.693C472.412 145.353 474.666 130.76 475.596 116.102Z" fill="#FF901D"/>
<path d="M469.286 159.682C461.595 143.857 452.986 129.134 442.895 114.863C441.698 113.17 439.013 113.946 438.926 116.018C437.697 145.147 442.695 175.939 456.652 201.509C461.826 187.899 466.19 173.919 469.286 159.682Z" fill="#FF901D"/>
<path d="M456.649 201.519C472.518 191.32 487.014 180.169 500.919 167.643C502.523 166.198 505.039 167.707 504.496 169.796C496.119 202.005 472.163 235.058 438.057 240.896C445.147 228.236 451.498 215.095 456.649 201.519Z" fill="#FF901D"/>
<path d="M438.063 240.887C435.283 223.623 431.307 207.154 425.772 190.689C425.114 188.731 422.333 188.693 421.643 190.641C411.963 217.969 408.042 248.8 413.882 277.134C422.76 265.644 430.973 253.569 438.063 240.887Z" fill="#FF901D"/>
<path d="M413.876 277.143C431.965 272.018 449.055 265.609 465.98 257.753C467.935 256.845 469.895 259.021 468.768 260.858C451.366 289.237 418.786 313.807 384.471 309.573C395.005 299.481 404.959 288.7 413.876 277.143Z" fill="#FF901D"/>
<path d="M384.479 309.566C386.947 292.172 387.996 275.207 387.511 257.768C387.454 255.701 384.802 254.854 383.574 256.518C366.242 280.016 353.312 308.56 350.218 337.499C362.27 329.029 373.842 319.771 384.479 309.566Z" fill="#FF901D"/>
<path d="M204.103 353.371C190.254 346.542 177.595 339.112 166.476 331.29C166.473 331.288 166.471 331.287 166.468 331.285C166.466 331.284 166.465 331.282 166.463 331.281C154.054 322.561 142.866 313.442 133.206 304.175C133.204 304.173 133.202 304.17 133.2 304.168C122.357 293.782 112.749 283.188 104.641 272.679C104.639 272.676 104.636 272.673 104.634 272.67C104.633 272.669 104.633 272.668 104.632 272.667C95.486 260.829 87.583 248.986 81.143 237.464C81.14 237.458 81.136 237.453 81.133 237.447C73.829 224.4 67.756 211.541 63.084 199.225C63.082 199.22 63.08 199.216 63.078 199.212V199.211C57.742 185.17 53.613 171.504 50.804 158.592C50.804 158.59 50.803 158.589 50.803 158.588C47.578 143.803 45.515 129.566 44.672 116.275C44.672 116.268 44.67 116.262 44.67 116.256C43.69 100.949 43.812 86.3589 45.033 72.8919C45.048 72.7289 45.048 72.5669 45.052 72.4049C46.664 51.5799 50.519 30.705 56.529 10.3479C57.737 6.25495 55.398 1.95795 51.305 0.74995C47.214 -0.45905 42.915 1.87895 41.707 5.97395C35.326 27.5889 31.247 49.768 29.584 71.895C29.573 72.046 29.576 72.1939 29.573 72.3429C28.351 86.3649 28.236 101.463 29.247 117.246C29.247 117.249 29.247 117.251 29.247 117.254C30.139 131.309 32.308 146.309 35.695 161.84C35.698 161.852 35.699 161.865 35.701 161.877C38.672 175.537 43.022 189.946 48.631 204.701C48.632 204.703 48.632 204.705 48.633 204.707C53.576 217.735 59.974 231.292 67.65 245.001C67.651 245.003 67.652 245.005 67.653 245.007C67.656 245.012 67.658 245.016 67.661 245.02C67.661 245.02 67.661 245.02 67.662 245.021C74.473 257.201 82.796 269.681 92.402 282.115C92.406 282.12 92.41 282.123 92.413 282.128C100.984 293.235 111.103 304.399 122.49 315.308C122.493 315.311 122.495 315.314 122.498 315.317C132.723 325.128 144.526 334.753 157.58 343.926C157.582 343.927 157.583 343.928 157.585 343.929C169.353 352.21 182.705 360.05 197.268 367.232C198.368 367.774 199.533 368.031 200.68 368.031C203.529 368.031 206.271 366.448 207.616 363.72C209.503 359.892 207.93 355.259 204.103 353.371Z" fill="#F7BC14"/>
<path d="M482.427 72.3429C482.424 72.1939 482.427 72.0469 482.416 71.8969C480.753 49.7659 476.674 27.5859 470.293 5.9749C469.085 1.8829 464.789 -0.451095 460.694 0.751905C456.601 1.95991 454.263 6.2579 455.471 10.3509C461.48 30.7029 465.335 51.5769 466.948 72.4039C466.953 72.5669 466.953 72.7299 466.968 72.8939C468.189 86.3559 468.311 100.947 467.331 116.26C467.331 116.263 467.331 116.266 467.331 116.268C467.331 116.271 467.33 116.273 467.33 116.276C466.487 129.561 464.424 143.797 461.198 158.589C461.198 158.59 461.197 158.592 461.197 158.593C458.39 171.505 454.26 185.171 448.923 199.211C448.922 199.213 448.922 199.214 448.921 199.216C448.92 199.22 448.918 199.223 448.916 199.226C444.245 211.541 438.17 224.404 430.86 237.461C430.859 237.462 430.858 237.464 430.857 237.465C424.418 248.984 416.515 260.827 407.367 272.668C407.365 272.671 407.363 272.674 407.361 272.677C407.36 272.678 407.36 272.678 407.359 272.679C399.254 283.184 389.644 293.778 378.8 304.168C378.798 304.17 378.796 304.173 378.794 304.175C369.138 313.439 357.948 322.559 345.536 331.281C345.533 331.283 345.53 331.286 345.526 331.289C345.525 331.289 345.524 331.29 345.523 331.29C334.404 339.114 321.745 346.543 307.896 353.371C304.068 355.258 302.495 359.891 304.383 363.718C305.728 366.448 308.469 368.03 311.319 368.03C312.466 368.03 313.631 367.773 314.73 367.231C329.291 360.051 342.641 352.212 354.409 343.932C354.413 343.929 354.417 343.928 354.421 343.925C367.477 334.749 379.28 325.124 389.502 315.316C389.505 315.313 389.507 315.31 389.51 315.307C400.902 304.391 411.024 293.225 419.593 282.119C419.594 282.119 419.594 282.118 419.595 282.117C419.596 282.116 419.597 282.115 419.598 282.114C429.209 269.672 437.537 257.187 444.347 245.006C444.352 244.998 444.355 244.99 444.359 244.982C452.033 231.274 458.428 217.723 463.365 204.707C463.365 204.706 463.366 204.706 463.366 204.704C463.366 204.703 463.367 204.703 463.367 204.701C468.973 189.954 473.32 175.554 476.291 161.9C476.292 161.897 476.293 161.895 476.294 161.892C479.687 146.335 481.86 131.317 482.752 117.253C482.753 117.242 482.752 117.232 482.752 117.222C483.763 101.442 483.648 86.3519 482.427 72.3429Z" fill="#F7BC14"/>
<path d="M212.092 225.012C189.816 225.013 168.104 217.12 150.827 202.418C129.513 184.28 117.288 157.83 117.288 129.851V103.723C117.288 100.703 118.466 97.8631 120.604 95.7301C122.735 93.6051 125.565 92.4351 128.573 92.4351C128.583 92.4351 128.593 92.4351 128.603 92.4351L197.011 92.5851C201.278 92.5941 204.73 96.0611 204.721 100.329C204.711 104.59 201.253 108.039 196.995 108.039C196.989 108.039 196.983 108.039 196.977 108.039L132.742 107.898L132.741 129.85C132.741 153.29 142.983 175.45 160.841 190.647C178.562 205.727 201.859 212.25 224.746 208.537C225.54 208.408 226.339 208.273 227.146 208.132C231.354 207.403 235.354 210.207 236.09 214.41C236.826 218.614 234.015 222.618 229.812 223.354C228.941 223.506 228.076 223.653 227.219 223.792C222.18 224.61 217.12 225.012 212.092 225.012Z" fill="#FFB125"/>
<path d="M299.908 225.012C294.878 225.012 289.822 224.61 284.78 223.793C283.923 223.654 283.058 223.507 282.187 223.355C277.983 222.619 275.173 218.614 275.909 214.411C276.645 210.207 280.654 207.402 284.853 208.133C285.659 208.275 286.459 208.41 287.253 208.538C310.145 212.248 333.437 205.728 351.158 190.648C369.016 175.452 379.258 153.292 379.258 129.851V107.899L315.023 108.04C315.017 108.04 315.011 108.04 315.005 108.04C310.746 108.04 307.288 104.592 307.279 100.33C307.269 96.062 310.721 92.595 314.989 92.586L383.4 92.436C383.41 92.436 383.42 92.436 383.43 92.436C386.436 92.436 389.265 93.605 391.397 95.731C393.535 97.865 394.713 100.703 394.713 103.724V129.852C394.713 157.831 382.489 184.281 361.174 202.419C343.897 217.119 322.183 225.012 299.908 225.012Z" fill="#FFB125"/>
<path d="M205.195 336.993H306.804C264.715 283.619 269.107 206.697 269.107 206.697H256H242.893C242.893 206.698 247.285 283.62 205.195 336.993Z" fill="#FED130"/>
<path d="M269.107 206.698H256H242.893C242.893 206.698 243.573 218.641 241.824 236.379C238.49 270.19 246.877 304.298 266.665 331.915C267.893 333.629 269.165 335.323 270.482 336.993H306.805C264.715 283.62 269.107 206.698 269.107 206.698Z" fill="#F7BC14"/>
<path d="M179.353 70.293V137.704C179.353 177.586 198.308 215.094 230.417 238.75C245.631 249.958 266.369 249.958 281.583 238.75C313.692 215.095 332.647 177.586 332.647 137.704V70.293H179.353Z" fill="#FED130"/>
<path d="M296.152 70.293V137.704C296.152 177.586 277.197 215.094 245.088 238.75C242.759 240.466 240.3 241.916 237.752 243.106C251.85 249.693 268.697 248.243 281.582 238.75C313.691 215.095 332.646 177.586 332.646 137.704V70.293H296.152Z" fill="#F7BC14"/>
<path d="M338.138 80.8231H173.862C171.386 80.8231 169.379 78.816 169.379 76.34V57.762C169.379 55.286 171.386 53.2791 173.862 53.2791H338.138C340.614 53.2791 342.621 55.286 342.621 57.762V76.34C342.62 78.816 340.613 80.8231 338.138 80.8231Z" fill="#FFB125"/>
<path d="M338.138 53.28H306.126V80.823H338.138C340.614 80.823 342.62 78.816 342.62 76.34V57.762C342.62 55.287 340.613 53.28 338.138 53.28Z" fill="#FF901D"/>
<path d="M343.164 369.569H169.524C167.007 369.569 165.26 367.062 166.132 364.701L179.027 329.761C179.551 328.34 180.905 327.397 182.419 327.397H330.269C331.783 327.397 333.137 328.34 333.661 329.761L346.556 364.701C347.428 367.062 345.681 369.569 343.164 369.569Z" fill="#FFB125"/>
<path d="M346.557 364.701L333.662 329.761C333.137 328.34 331.784 327.397 330.269 327.397H295.003L310.567 369.569H343.164C345.681 369.569 347.428 367.062 346.557 364.701Z" fill="#FF901D"/>
</svg>
