<svg xmlns="http://www.w3.org/2000/svg" width="14" height="15"><g transform="translate(0 0.125)"><path d="M 14 7 C 14 10.866 10.866 14 7 14 C 3.134 14 0 10.866 0 7 C 0 3.134 3.134 0 7 0 C 10.866 0 14 3.134 14 7 Z" fill="rgb(238,80,118)"></path><path d="M 7 11 C 6.448 11 6 11 6 11 L 6 3 C 6 3 6.448 3 7 3 L 7 3 C 7.552 3 8 3 8 3 L 8 11 C 8 11 7.552 11 7 11 Z" fill="rgb(255,255,255)"></path><path d="M 3 7 C 3 6.448 3 6 3 6 L 11 6 C 11 6 11 6.448 11 7 L 11 7 C 11 7.552 11 8 11 8 L 3 8 C 3 8 3 7.552 3 7 Z" fill="rgb(255,255,255)"></path></g></svg>