<svg width="20" height="21" viewBox="0 0 20 21" fill="none" xmlns="http://www.w3.org/2000/svg">
<path fill-rule="evenodd" clip-rule="evenodd" d="M2 17.025V2.56252H14V17.025C14 17.4151 14.0602 17.7896 14.1707 18.1375H3C2.44772 18.1375 2 17.6394 2 17.025ZM17 20.3625H3C1.34315 20.3625 0 18.8683 0 17.025V0.337524H14H15H16V5.90002H20V7.01252V8.12502V17.025C20 18.8683 18.6569 20.3625 17 20.3625ZM16 8.12502H18V17.025C18 17.6394 17.5523 18.1375 17 18.1375C16.4477 18.1375 16 17.6394 16 17.025V8.12502ZM8 4.78752V9.23752H4V4.78752H8ZM12 8.12502V5.90002H9V8.12502H12ZM12 10.35V12.575H4V10.35H12ZM12 15.9125V13.6875H4V15.9125H12Z" fill="black"/>
</svg>
