<svg width="20" height="20" viewBox="0 0 20 20" fill="none" xmlns="http://www.w3.org/2000/svg">
<path d="M8.68164 6.72432L8.37504 8.47654L9.98047 7.64924L11.5859 8.47654L11.2793 6.72432L12.5781 5.48334L10.7832 5.22768L9.98047 3.63342L9.17773 5.22768L7.38281 5.48334L8.68164 6.72432Z" fill="black"/>
<path d="M16.3638 1.52344C16.3663 1.27199 16.3672 1.02426 16.3672 0.78125V0H3.55469V0.78125C3.55469 1.02426 3.55559 1.27199 3.55809 1.52344H0V2.30469C0 4.3041 0.525547 5.9934 1.60668 7.46922C2.52457 8.72215 3.67898 9.60156 4.6975 10.3774C5.33133 10.8602 5.89629 11.2912 6.29586 11.727C7.0802 12.7653 8.04801 13.6669 9.17969 14.4136V15.7031H8.78906C6.85055 15.7031 5.27344 17.2802 5.27344 19.2188V20H14.6484V19.2188C14.6484 17.2802 13.0713 15.7031 11.1328 15.7031H10.7422V14.4136C11.8718 13.6682 12.8383 12.7685 13.6219 11.7325C14.0254 11.2934 14.6018 10.8588 15.2488 10.3716C16.2783 9.59648 17.4451 8.71789 18.3733 7.46641C19.4679 5.9907 20 4.3023 20 2.30469V1.52344H16.3638ZM1.59609 3.08594H3.60148C3.67707 4.61375 3.87047 6.23395 4.35605 7.83695C4.39461 7.96422 4.43527 8.08992 4.47699 8.21484C3.08527 7.04512 1.81613 5.5743 1.59609 3.08594ZM11.1328 17.2656C11.9322 17.2656 12.6209 17.7482 12.9229 18.4375H6.99902C7.30098 17.7482 7.98969 17.2656 8.78906 17.2656H11.1328ZM12.4582 10.6909C12.3085 10.8545 12.1712 11.0232 12.0505 11.1995L12.0537 11.2017C11.4817 11.8759 10.7924 12.4998 9.96094 13.0571C9.12949 12.4998 8.44016 11.876 7.86812 11.2016L7.87133 11.1995C7.74902 11.0207 7.61 10.8498 7.45855 10.6839C5.5052 8.03012 5.16305 4.70254 5.12195 1.5625H14.7999C14.7588 4.70531 14.416 8.0359 12.4582 10.6909ZM15.4327 8.25102C15.4788 8.1143 15.5235 7.97648 15.5658 7.83695C16.0514 6.23395 16.2448 4.61375 16.3204 3.08594H18.4033C18.1771 5.59969 16.8621 7.07445 15.4327 8.25102Z" fill="black"/>
</svg>
