<svg width="21" height="21" viewBox="0 0 21 21" fill="none" xmlns="http://www.w3.org/2000/svg">
<path d="M9.11572 7.06051L8.79379 8.90034L10.4795 8.03167L12.1652 8.90034L11.8433 7.06051L13.207 5.75748L11.3224 5.48903L10.4795 3.81506L9.63662 5.48903L7.75195 5.75748L9.11572 7.06051Z" fill="black"/>
<path d="M17.182 1.59961C17.1846 1.33559 17.1855 1.07547 17.1855 0.820312V0H3.73242V0.820312C3.73242 1.07547 3.73337 1.33559 3.73599 1.59961H0V2.41992C0 4.51931 0.551824 6.29307 1.68701 7.84268C2.6508 9.15826 3.86293 10.0816 4.93237 10.8963C5.59789 11.4032 6.1911 11.8558 6.61065 12.3133C7.4342 13.4036 8.45041 14.3503 9.63867 15.1343V16.4883H9.22852C7.19307 16.4883 5.53711 18.1442 5.53711 20.1797V21H15.3809V20.1797C15.3809 18.1442 13.7249 16.4883 11.6895 16.4883H11.2793V15.1343C12.4654 14.3517 13.4802 13.4069 14.303 12.3191C14.7267 11.8581 15.3319 11.4018 16.0113 10.8902C17.0922 10.0763 18.3173 9.15379 19.292 7.83973C20.4413 6.29024 21 4.51742 21 2.41992V1.59961H17.182ZM1.6759 3.24023H3.78156C3.86092 4.84444 4.06399 6.54564 4.57386 8.2288C4.61434 8.36243 4.65704 8.49442 4.70084 8.62559C3.23954 7.39737 1.90694 5.85301 1.6759 3.24023ZM11.6895 18.1289C12.5288 18.1289 13.2519 18.6357 13.569 19.3594H7.34897C7.66603 18.6357 8.38917 18.1289 9.22852 18.1289H11.6895ZM13.0811 11.2254C12.9239 11.3973 12.7797 11.5744 12.6531 11.7595L12.6564 11.7618C12.0558 12.4697 11.332 13.1248 10.459 13.7099C9.58597 13.1248 8.86216 12.4698 8.26153 11.7617L8.26489 11.7594C8.13647 11.5717 7.9905 11.3923 7.83148 11.2181C5.78045 8.43162 5.4212 4.93767 5.37805 1.64062H15.5399C15.4967 4.94058 15.1368 8.43769 13.0811 11.2254ZM16.2044 8.66357C16.2528 8.52001 16.2997 8.37531 16.3441 8.2288C16.854 6.54564 17.057 4.84444 17.1364 3.24023H19.3234C19.086 5.87967 17.7052 7.42818 16.2044 8.66357Z" fill="black"/>
</svg>
