<svg width="24" height="24" viewBox="0 0 24 24" fill="none" xmlns="http://www.w3.org/2000/svg">
<path d="M23 12C23 18.0751 18.0751 23 12 23C5.92487 23 1 18.0751 1 12C1 5.92487 5.92487 1 12 1C18.0751 1 23 5.92487 23 12Z" stroke="#101214" stroke-width="2"/>
<path fill-rule="evenodd" clip-rule="evenodd" d="M12 19C11.4477 19 11 18.5523 11 18L11 6C11 5.44772 11.4477 5 12 5V5C12.5523 5 13 5.44772 13 6L13 18C13 18.5523 12.5523 19 12 19V19Z" fill="#101214"/>
<path fill-rule="evenodd" clip-rule="evenodd" d="M5 12C5 11.4477 5.44772 11 6 11L18 11C18.5523 11 19 11.4477 19 12V12C19 12.5523 18.5523 13 18 13L6 13C5.44772 13 5 12.5523 5 12V12Z" fill="#101214"/>
</svg>
