<svg width="20" height="16" viewBox="0 0 20 16" fill="none" xmlns="http://www.w3.org/2000/svg">
<path d="M7.22222 11.1111C5.79861 11.1111 4.47569 10.7882 3.35764 10.2431C2.60069 10.684 1.54861 11.1111 0.277778 11.1111C0.223749 11.1117 0.170781 11.0961 0.125635 11.0664C0.0804888 11.0367 0.0452115 10.9943 0.0243056 10.9444C0.00239078 10.8945 -0.00435619 10.8393 0.00490506 10.7856C0.0141663 10.7319 0.0390265 10.682 0.0763889 10.6424C0.0868056 10.6319 0.854167 9.79861 1.31944 8.75C0.489583 7.84375 0 6.74653 0 5.55556C0 2.48611 3.23264 0 7.22222 0C11.2118 0 14.4444 2.48611 14.4444 5.55556C14.4444 8.625 11.2118 11.1111 7.22222 11.1111Z" fill="#AAAAAA"/>
<path d="M20.0001 10C20.0001 11.191 19.5105 12.2917 18.6806 13.1945C19.1459 14.2466 19.9132 15.0764 19.9237 15.0868C19.961 15.1265 19.9859 15.1763 19.9951 15.23C20.0044 15.2838 19.9977 15.339 19.9757 15.3889C19.9546 15.4386 19.9193 15.4809 19.8742 15.5106C19.8291 15.5402 19.7763 15.5559 19.7223 15.5556C18.4514 15.5556 17.3994 15.1285 16.6424 14.6875C15.5244 15.2361 14.2014 15.5556 12.7778 15.5556C9.78478 15.5556 7.21533 14.1528 6.12158 12.1563C6.48706 12.1977 6.85447 12.2197 7.22228 12.2222C11.816 12.2222 15.5556 9.23267 15.5556 5.55558C15.5564 5.32219 15.5413 5.08902 15.5105 4.85767C18.1424 5.68753 20.0001 7.67711 20.0001 10Z" fill="#AAAAAA"/>
</svg>
