<svg xmlns="http://www.w3.org/2000/svg" width="16" height="16"><path d="M 10.609 3.244 L 10.609 1.131 L 5.391 1.131 L 5.391 3.244" fill="transparent" stroke="rgb(0,0,0)" stroke-linejoin="round" stroke-dasharray=""></path><path d="M 2.188 3.244 L 13.813 3.244 L 13.813 5.352 L 2.188 5.352 Z" fill="transparent" stroke="rgb(0,0,0)" stroke-linejoin="round" stroke-dasharray=""></path><path d="M 3.244 5.352 L 12.756 5.352 L 11.699 14.244 L 4.301 14.244 Z" fill="transparent" stroke="rgb(0,0,0)" stroke-linejoin="round" stroke-dasharray=""></path><path d="M 8 12.642 C 7.724 12.642 7.5 12.642 7.5 12.642 L 7.5 6.955 C 7.5 6.955 7.724 6.955 8 6.955 L 8 6.955 C 8.276 6.955 8.5 6.955 8.5 6.955 L 8.5 12.642 C 8.5 12.642 8.276 12.642 8 12.642 Z" fill="rgb(0,0,0)"></path><path d="M 9.877 12.631 C 9.602 12.605 9.379 12.584 9.379 12.584 L 9.843 6.919 C 9.843 6.919 10.066 6.94 10.341 6.966 L 10.341 6.966 C 10.616 6.991 10.839 7.012 10.839 7.012 L 10.375 12.678 C 10.375 12.678 10.152 12.657 9.877 12.631 Z" fill="rgb(0,0,0)"></path><path d="M 6.123 12.631 C 5.848 12.657 5.625 12.678 5.625 12.678 L 5.161 7.012 C 5.161 7.012 5.384 6.991 5.659 6.966 L 5.659 6.966 C 5.934 6.94 6.157 6.919 6.157 6.919 L 6.621 12.584 C 6.621 12.584 6.398 12.605 6.123 12.631 Z" fill="rgb(0,0,0)"></path></svg>