<svg width="41" height="36" viewBox="0 0 41 36" fill="none" xmlns="http://www.w3.org/2000/svg">
<path d="M20.9044 12.9005C19.1313 12.9005 17.8521 13.2607 16.7024 14.0301C15.1156 15.0942 14.1116 16.5676 13.7068 18.4503C13.6097 18.8923 13.553 19.3507 13.4073 19.7846C12.9701 21.1598 12.1766 22.2894 11.0998 23.2307C9.84489 24.3276 9.06765 25.6946 8.76809 27.3481C8.54139 28.6086 8.66283 29.8365 9.09194 31.0316C9.49675 32.1612 10.1606 33.1271 11.0755 33.8965C12.9458 35.4682 15.0751 35.9511 17.4392 35.3454C18.1355 35.1653 18.8075 34.8952 19.5281 34.8215C20.5158 34.7151 21.4955 34.756 22.4589 35.0179C23.0904 35.1898 23.7057 35.4354 24.3615 35.5336C25.4707 35.6974 26.5556 35.6073 27.6081 35.239C30.7738 34.1421 32.6683 31.0561 32.2635 27.7082C32.0692 26.112 31.4053 24.7369 30.2718 23.6072C29.7618 23.0916 29.1869 22.6413 28.7497 22.0602C28.0615 21.1516 27.5758 20.1529 27.3976 19.0233C27.2681 18.1802 27.0495 17.3616 26.6366 16.6249C25.2926 14.202 23.2281 12.9905 20.9044 12.9005ZM11.0027 16.7314C11.0027 13.76 8.62235 11.3534 5.6915 11.3534C2.76874 11.3616 0.388428 13.7682 0.388428 16.7232C0.388428 19.6864 2.76874 22.1257 5.6915 22.1093C8.78428 22.0847 11.0189 19.5718 11.0027 16.7314ZM13.6259 10.715C16.4272 10.7886 18.937 8.39024 18.9289 5.37795C18.9289 2.41477 16.5648 2.10337e-05 13.6421 2.10337e-05C10.6869 -0.00816455 8.32279 2.37384 8.3066 5.34521C8.29041 8.3575 10.7922 10.7886 13.6259 10.715ZM32.6845 5.37795C32.6926 2.42295 30.3285 0.00820662 27.4219 2.10337e-05C24.4668 -0.00816455 22.0703 2.37384 22.0622 5.32884C22.0541 8.32476 24.4101 10.7231 27.3572 10.7313C30.3204 10.7313 32.6764 8.3575 32.6845 5.37795ZM40.6108 16.7477C40.6594 13.9564 38.3762 11.2879 35.1377 11.3698C32.3364 11.4435 29.9966 13.7682 29.9966 16.7232C29.9885 19.6945 32.3526 22.1175 35.2915 22.1093C38.3357 22.1011 40.627 19.6127 40.6108 16.7477Z" fill="#B063E2"/>
<path d="M20.9045 12.9005C23.2282 12.9906 25.2846 14.2102 26.6286 16.6086C27.0415 17.3535 27.2601 18.1638 27.3897 19.007C27.5678 20.1448 28.0536 21.1434 28.7417 22.0438C29.187 22.625 29.7538 23.0752 30.2638 23.5909C31.3973 24.7205 32.0612 26.0875 32.2555 27.6919C32.6603 31.0398 30.7658 34.1257 27.6002 35.2226C26.5476 35.591 25.4627 35.681 24.3536 35.5173C23.6978 35.4191 23.0824 35.1817 22.4509 35.0016C21.4875 34.7397 20.5159 34.6987 19.5201 34.8051C18.7995 34.887 18.1275 35.1489 17.4312 35.329C15.0752 35.9429 12.9459 35.46 11.0675 33.8802C10.1527 33.1107 9.48877 32.1366 9.08395 31.0152C8.65485 29.8201 8.5334 28.5923 8.7601 27.3317C9.05966 25.6782 9.845 24.3112 11.0918 23.2143C12.1605 22.273 12.954 21.1434 13.3993 19.7682C13.5369 19.3344 13.6017 18.876 13.6988 18.434C14.1037 16.5513 15.1076 15.0779 16.6945 14.0138C17.8522 13.2607 19.1314 12.9005 20.9045 12.9005Z" fill="#B063E2"/>
<path d="M11.0027 16.7315C11.0189 19.5719 8.77619 22.0848 5.6834 22.1012C2.76874 22.1258 0.388428 19.6864 0.388428 16.7233C0.388428 13.7683 2.76874 11.3699 5.69959 11.3617C8.62236 11.3535 11.0027 13.7683 11.0027 16.7315Z" fill="#B063E2"/>
<path d="M13.6258 10.7152C10.784 10.7889 8.29034 8.35775 8.31463 5.34545C8.33082 2.37409 10.6949 -0.00792041 13.6501 0.000265174C16.5728 0.00845076 18.9289 2.41501 18.937 5.37819C18.937 8.39867 16.4271 10.7889 13.6258 10.7152Z" fill="#B063E2"/>
<path d="M32.6843 5.37819C32.6762 8.35775 30.3121 10.7316 27.3651 10.7316C24.418 10.7234 22.062 8.325 22.0701 5.32908C22.0782 2.37408 24.4747 -0.00792041 27.4217 0.000265174C30.3364 0.00845076 32.6924 2.4232 32.6843 5.37819Z" fill="#B063E2"/>
<path d="M40.6108 16.7477C40.627 19.6126 38.3357 22.1011 35.2915 22.1092C32.3526 22.1092 29.9966 19.6863 29.9966 16.7231C30.0047 13.7763 32.3364 11.4434 35.1377 11.3698C38.3762 11.2879 40.6594 13.9564 40.6108 16.7477Z" fill="#B063E2"/>
</svg>
