<svg width="24" height="24" viewBox="0 0 24 24" fill="none" xmlns="http://www.w3.org/2000/svg">
<path d="M24 12C24 18.6274 18.6274 24 12 24C5.37258 24 0 18.6274 0 12C0 5.37258 5.37258 0 12 0C18.6274 0 24 5.37258 24 12Z" fill="#253329"/>
<path d="M8.33334 11.88L12.3333 6L16.3333 11.88H8.33334Z" fill="#6DE3BA"/>
<path d="M12.3333 6H7.76192L4.33334 11.04H8.90477L12.3333 6Z" fill="#27B479"/>
<path d="M12.3333 6H16.9048L20.3333 11.04H15.7619L12.3333 6Z" fill="#27B479"/>
<path d="M8.90477 11.04H15.7619L12.3333 20L8.90477 11.04Z" fill="#27B479"/>
<path d="M4.33334 11.04H8.90477L12.3333 20L4.33334 11.04Z" fill="#4ADEA8"/>
<path d="M20.3333 11.04H15.7619L12.3333 20L20.3333 11.04Z" fill="#4ADEA8"/>
</svg>
