<svg width="20" height="18" viewBox="0 0 20 18" fill="none" xmlns="http://www.w3.org/2000/svg">
<path d="M12.2218 17.2217V12.7773C12.2218 12.63 12.1633 12.4887 12.0591 12.3845C11.9549 12.2803 11.8136 12.2218 11.6663 12.2218H8.33298C8.18564 12.2218 8.04433 12.2803 7.94014 12.3845C7.83596 12.4887 7.77743 12.63 7.77743 12.7773V17.2217C7.77743 17.3691 7.71889 17.5104 7.61471 17.6145C7.51052 17.7187 7.36922 17.7773 7.22188 17.7773H2.77747C2.63013 17.7773 2.48883 17.7187 2.38464 17.6145C2.28045 17.5104 2.22192 17.3691 2.22192 17.2217V10.8006C2.28373 10.7586 2.3556 10.735 2.41185 10.6843L9.99963 3.99268L17.5947 10.6905C17.6482 10.7384 17.7183 10.76 17.7773 10.8016V17.2217C17.7773 17.3691 17.7188 17.5104 17.6146 17.6145C17.5104 17.7187 17.3691 17.7773 17.2218 17.7773H12.7774C12.63 17.7773 12.4887 17.7187 12.3845 17.6145C12.2804 17.5104 12.2218 17.3691 12.2218 17.2217Z" fill="#1EC8CF"/>
<path d="M18.3302 9.85754L10.3678 2.83435C10.2663 2.74481 10.1356 2.6954 10.0003 2.6954C9.86491 2.6954 9.73421 2.74481 9.63272 2.83435L1.6703 9.85789C1.5607 9.9563 1.4165 10.0072 1.26941 9.99928C1.12233 9.9914 0.984389 9.92543 0.885929 9.81588L0.142186 8.9888C0.0437748 8.8792 -0.00708253 8.73501 0.000795994 8.58792C0.00867451 8.44083 0.0746439 8.30289 0.184199 8.20443L9.073 0.357286C9.32736 0.127324 9.65805 0 10.0009 0C10.3438 0 10.6745 0.127324 10.9289 0.357286L19.8156 8.20443C19.9252 8.30285 19.9912 8.44076 19.9992 8.58785C20.0071 8.73493 19.9563 8.87916 19.858 8.9888L19.1149 9.81588C19.0661 9.87015 19.0071 9.91428 18.9413 9.94575C18.8755 9.97722 18.8041 9.99541 18.7312 9.99927C18.6583 10.0031 18.5854 9.99262 18.5166 9.9683C18.4478 9.94398 18.3845 9.90635 18.3302 9.85754Z" fill="#1EC8CF"/>
</svg>
