<svg width="24" height="24" viewBox="0 0 24 24" fill="none" xmlns="http://www.w3.org/2000/svg">
<path d="M24 12C24 18.6274 18.6274 24 12 24C5.37258 24 0 18.6274 0 12C0 5.37258 5.37258 0 12 0C18.6274 0 24 5.37258 24 12Z" fill="#F7EFFB"/>
<path fill-rule="evenodd" clip-rule="evenodd" d="M9.2858 7.90909C9.43427 8.16625 9.34617 8.49507 9.08901 8.64354C8.83185 8.79201 8.50302 8.70391 8.35455 8.44675L7.38557 6.76843C4.4978 8.67188 4.27138 12.4779 7.66265 15.4057L11.204 18.1644C11.6242 18.4917 12.2103 18.5014 12.641 18.1882L16.2789 15.5425C19.794 12.6974 19.474 8.83093 16.5657 6.85381L15.6461 8.44672C15.4976 8.70388 15.1688 8.79199 14.9116 8.64352C14.6545 8.49505 14.5664 8.16622 14.7148 7.90906L15.6289 6.32582C14.7541 5.92141 13.7168 5.66048 12.5382 5.59228V8.17791C12.5382 8.47485 12.2975 8.71556 12.0005 8.71556C11.7036 8.71556 11.4629 8.47485 11.4629 8.17791V5.58334C10.2598 5.63135 9.21067 5.87168 8.33185 6.25678L9.2858 7.90909Z" fill="#C48DDE"/>
<path fill-rule="evenodd" clip-rule="evenodd" d="M9.2858 7.90909C9.43427 8.16625 9.34617 8.49507 9.08901 8.64354C8.83185 8.79201 8.50302 8.70391 8.35455 8.44675L7.38557 6.76843C4.4978 8.67188 4.27138 12.4779 7.66265 15.4057L11.204 18.1644C11.6242 18.4917 12.2103 18.5014 12.641 18.1882L16.2789 15.5425C19.794 12.6974 19.474 8.83093 16.5657 6.85381L15.6461 8.44672C15.4976 8.70388 15.1688 8.79199 14.9116 8.64352C14.6545 8.49505 14.5664 8.16622 14.7148 7.90906L15.6289 6.32582C14.7541 5.92141 13.7168 5.66048 12.5382 5.59228V8.17791C12.5382 8.47485 12.2975 8.71556 12.0005 8.71556C11.7036 8.71556 11.4629 8.47485 11.4629 8.17791V5.58334C10.2598 5.63135 9.21067 5.87168 8.33185 6.25678L9.2858 7.90909Z" fill="#C48DDE"/>
</svg>
