<svg width="19" height="19" viewBox="0 0 19 19" fill="none" xmlns="http://www.w3.org/2000/svg">
<path fill-rule="evenodd" clip-rule="evenodd" d="M9.703 18.0974C14.6736 18.0974 18.703 14.0679 18.703 9.09735C18.703 4.12679 14.6736 0.0973511 9.703 0.0973511C4.73244 0.0973511 0.703003 4.12679 0.703003 9.09735C0.703003 14.0679 4.73244 18.0974 9.703 18.0974ZM7.51964 6.58C7.71251 6.46865 7.77859 6.22203 7.66723 6.02916L6.95177 4.78993C7.61088 4.50111 8.39773 4.32086 9.30005 4.28485V6.23077C9.30005 6.45348 9.48058 6.63402 9.70329 6.63402C9.92599 6.63402 10.1065 6.45348 10.1065 6.23077V4.29155C10.9905 4.3427 11.7685 4.5384 12.4246 4.84171L11.739 6.02914C11.6276 6.22201 11.6937 6.46863 11.8866 6.57998C12.0795 6.69133 12.3261 6.62525 12.4374 6.43238L13.1272 5.2377C15.3084 6.72054 15.5484 9.62041 12.9121 11.7542L10.1836 13.7385C9.86058 13.9734 9.42102 13.9662 9.1059 13.7207L6.44987 11.6516C3.90642 9.45574 4.07623 6.60126 6.24206 5.17366L6.9688 6.4324C7.08015 6.62527 7.32677 6.69135 7.51964 6.58Z" fill="#B570D5" fill-opacity="0.8"/>
</svg>
