<svg width="24" height="24" viewBox="0 0 24 24" fill="none" xmlns="http://www.w3.org/2000/svg">
<path d="M24 12C24 18.6274 18.6274 24 12 24C5.37258 24 0 18.6274 0 12C0 5.37258 5.37258 0 12 0C18.6274 0 24 5.37258 24 12Z" fill="#322533"/>
<path d="M7 17.5C7 16.6716 7.67157 16 8.5 16H15.5C16.3284 16 17 16.6716 17 17.5V17.5C17 18.3284 16.3284 19 15.5 19H8.5C7.67157 19 7 18.3284 7 17.5V17.5Z" fill="#E6B1FF"/>
<path fill-rule="evenodd" clip-rule="evenodd" d="M7.99403 5.96701C6.18391 6.951 5 8.58371 5 10.4314C5 13.3636 10.0709 17.2369 10.0709 17.2369C11.1462 18.2544 12.8538 18.2544 13.9291 17.2369C13.9291 17.2369 19 13.3747 19 10.4314C19 8.58441 17.817 6.95224 16.008 5.96812L15.2672 8.70561C15.1999 8.95432 14.9435 9.10238 14.6944 9.03631C14.4454 8.97023 14.298 8.71504 14.3653 8.46633L15.1494 5.56884C14.3338 5.24877 13.4267 5.04914 12.4667 5V8.24003C12.4667 8.49776 12.2577 8.70669 12 8.70669C11.7423 8.70669 11.5333 8.49776 11.5333 8.24003V5C10.5742 5.04909 9.66776 5.24842 8.85268 5.56801L9.63701 8.46633C9.70431 8.71504 9.55698 8.97023 9.30794 9.0363C9.05889 9.10238 8.80244 8.95432 8.73513 8.7056L7.99403 5.96701Z" fill="#D375FF"/>
</svg>
