<svg xmlns="http://www.w3.org/2000/svg" width="24" height="24"><path d="M 24 12 C 24 18.627 18.627 24 12 24 C 5.373 24 0 18.627 0 12 C 0 5.373 5.373 0 12 0 C 18.627 0 24 5.373 24 12 Z" fill="rgb(50,37,51)"></path><path d="M 7 17.5 C 7 16.672 7.672 16 8.5 16 L 15.5 16 C 16.328 16 17 16.672 17 17.5 C 17 18.328 16.328 19 15.5 19 L 8.5 19 C 7.672 19 7 18.328 7 17.5 Z" fill="rgb(230,177,255)"></path><path d="M 7.994 5.967 C 6.184 6.951 5 8.584 5 10.431 C 5 13.364 10.071 17.237 10.071 17.237 C 11.146 18.254 12.854 18.254 13.929 17.237 C 13.929 17.237 19 13.375 19 10.431 C 19 8.584 17.817 6.952 16.008 5.968 L 15.267 8.706 C 15.2 8.954 14.944 9.102 14.694 9.036 C 14.445 8.97 14.298 8.715 14.365 8.466 L 15.149 5.569 C 14.334 5.249 13.427 5.049 12.467 5 L 12.467 8.24 C 12.467 8.498 12.258 8.707 12 8.707 C 11.742 8.707 11.533 8.498 11.533 8.24 L 11.533 5 C 10.574 5.049 9.668 5.248 8.853 5.568 L 9.637 8.466 C 9.704 8.715 9.557 8.97 9.308 9.036 C 9.059 9.102 8.802 8.954 8.735 8.706 Z" fill="rgb(211,117,255)"></path></svg>