<svg width="24" height="24" viewBox="0 0 24 24" fill="none" xmlns="http://www.w3.org/2000/svg">
<circle cx="12" cy="12" r="12" fill="#FFF1D5"/>
<path fill-rule="evenodd" clip-rule="evenodd" d="M16.379 6.71053L16.3789 6.72414V6.74931C16.938 6.81583 17.4838 6.97632 17.9391 7.29364C18.625 7.77157 19.0001 8.52975 19.0001 9.52561C19.0001 10.6861 18.2028 11.4888 17.368 11.9626C16.7036 12.3398 15.9208 12.5699 15.2087 12.6504C14.6087 13.2629 13.8178 13.6902 12.9313 13.8379V14.9827C14.8984 15.2682 16.3789 16.5106 16.3789 18H12.0686H7.7583C7.7583 16.5104 9.23912 15.2679 11.2065 14.9826V13.838C10.327 13.6916 9.54163 13.27 8.94337 12.6654C8.19214 12.6022 7.3441 12.3668 6.63206 11.9626C5.79729 11.4888 5 10.6861 5 9.52561C5 8.52975 5.37506 7.77157 6.06093 7.29364C6.55349 6.95041 7.15188 6.79067 7.75836 6.73486V6.71054H7.75849V6.71053C7.75849 5.76583 9.68827 5 12.0688 5C14.4493 5 16.379 5.76583 16.379 6.71053ZM16.3789 8.13155V9.78951C16.3789 10.2132 16.3142 10.6219 16.1941 11.0064C16.364 10.9397 16.5288 10.8624 16.6831 10.7748C17.3141 10.4166 17.6208 9.98276 17.6208 9.52561C17.6208 8.90377 17.4091 8.59653 17.1464 8.41346C16.9584 8.28248 16.702 8.18632 16.3789 8.13155ZM7.96168 11.0641C7.73692 10.9856 7.51805 10.889 7.31702 10.7748C6.68595 10.4166 6.37929 9.98276 6.37929 9.52561C6.37929 8.90377 6.59095 8.59653 6.85368 8.41346C7.06752 8.26445 7.37002 8.1605 7.75836 8.1113L7.75836 9.78951C7.75836 10.2345 7.82971 10.6629 7.96168 11.0641ZM11.9995 7.97638C13.6564 7.97638 14.9995 7.53219 14.9995 6.98425C14.9995 6.43632 13.6564 5.99213 11.9995 5.99213C10.3427 5.99213 8.99951 6.43632 8.99951 6.98425C8.99951 7.53219 10.3427 7.97638 11.9995 7.97638Z" fill="#FFAD4C"/>
</svg>
