<svg width="27" height="27" viewBox="0 0 27 27" fill="none" xmlns="http://www.w3.org/2000/svg">
<circle cx="13.5" cy="13.5" r="13.5" fill="white"/>
<path fill-rule="evenodd" clip-rule="evenodd" d="M27 13.5C27 20.9558 20.9558 27 13.5 27C6.04416 27 0 20.9558 0 13.5C0 6.04416 6.04416 0 13.5 0C20.9558 0 27 6.04416 27 13.5ZM18.4264 7.56464C18.4264 6.4934 16.2554 5.625 13.5773 5.625C10.8992 5.625 8.72823 6.4934 8.72823 7.56462L8.72823 7.56715V7.5922C8.04591 7.65547 7.3727 7.83661 6.81854 8.22582C6.04694 8.76776 5.625 9.62749 5.625 10.7567C5.625 12.0727 6.52195 12.9828 7.46106 13.5201C8.26214 13.9784 9.21622 14.2454 10.0614 14.317C10.7345 15.0026 11.6181 15.4807 12.6076 15.6467V16.9446C10.3942 17.268 8.72823 18.677 8.72823 20.3661H13.5773H18.4264C18.4264 18.6772 16.7609 17.2685 14.548 16.9447V15.6465C15.5453 15.479 16.4349 14.9944 17.1098 14.3C17.9109 14.2087 18.7915 13.9477 19.539 13.5201C20.4781 12.9828 21.375 12.0727 21.375 10.7567C21.375 9.62749 20.9531 8.76776 20.1815 8.22582C19.6692 7.86604 19.0552 7.68405 18.4264 7.60861V7.56464ZM7.71039 9.49562C7.95098 9.32664 8.29131 9.20877 8.72823 9.15299V11.056C8.72823 11.5605 8.80851 12.0463 8.95698 12.5013C8.7041 12.4122 8.45783 12.3027 8.23164 12.1733C7.5217 11.7671 7.1767 11.2751 7.1767 10.7567C7.1767 10.0516 7.41482 9.70321 7.71039 9.49562ZM18.4264 11.056V9.17598C18.7897 9.23809 19.0782 9.34712 19.2896 9.49562C19.5852 9.70321 19.8233 10.0516 19.8233 10.7567C19.8233 11.2751 19.4783 11.7671 18.7684 12.1733C18.5949 12.2725 18.4095 12.3601 18.2185 12.4358C18.3536 11.9998 18.4264 11.5364 18.4264 11.056ZM13.5 9C15.364 9 16.875 8.49632 16.875 7.875C16.875 7.25368 15.364 6.75 13.5 6.75C11.636 6.75 10.125 7.25368 10.125 7.875C10.125 8.49632 11.636 9 13.5 9Z" fill="#EEB674"/>
</svg>
