<svg width="16" height="14" viewBox="0 0 16 14" fill="none" xmlns="http://www.w3.org/2000/svg">
<path fill-rule="evenodd" clip-rule="evenodd" d="M11.0356 0.333263C10.0705 0.333252 9.44834 0.448228 8.73518 0.7973C8.47115 0.926539 8.22344 1.08218 7.99339 1.26376C7.77221 1.09236 7.5344 0.943864 7.28129 0.818675C6.55429 0.459102 5.90027 0.333252 4.96978 0.333252C2.47771 0.333252 0.666748 2.3981 0.666748 5.07984C0.666748 7.10509 1.79597 9.06144 3.89931 10.9532C5.00334 11.9461 6.41296 12.9288 7.42248 13.4516L8.00008 13.7507L8.57768 13.4516C9.5872 12.9288 10.9968 11.9461 12.1009 10.9532C14.2042 9.06144 15.3334 7.10509 15.3334 5.07984C15.3334 2.42648 13.5054 0.343491 11.0356 0.333263ZM14.0001 5.07984C14.0001 6.66652 13.0575 8.29946 11.2092 9.96182C10.2015 10.8681 8.90606 11.7739 8.00008 12.249C7.09411 11.7739 5.79863 10.8681 4.79093 9.96182C2.94263 8.29946 2.00008 6.66652 2.00008 5.07984C2.00008 3.0984 3.25584 1.66659 4.96978 1.66659C5.7096 1.66659 6.1655 1.75431 6.69017 2.01381C7.00009 2.1671 7.274 2.3695 7.5111 2.62243L8.00164 3.14572L8.48771 2.61828C8.73015 2.35522 9.00809 2.14821 9.32136 1.99487C9.83066 1.74558 10.2581 1.66659 11.0328 1.66659C12.7256 1.67361 14.0001 3.12589 14.0001 5.07984Z" fill="black"/>
</svg>
