<svg width="16" height="14" viewBox="0 0 16 14" fill="none" xmlns="http://www.w3.org/2000/svg">
<path d="M8.73518 0.797545C9.44834 0.448472 10.0705 0.333495 11.0356 0.333507C13.5054 0.343735 15.3334 2.42673 15.3334 5.08008C15.3334 7.10533 14.2042 9.06168 12.1009 10.9534C10.9968 11.9464 9.5872 12.929 8.57768 13.4518L8.00008 13.7509L7.42248 13.4518C6.41296 12.929 5.00334 11.9464 3.89931 10.9534C1.79597 9.06168 0.666748 7.10533 0.666748 5.08008C0.666748 2.39834 2.47771 0.333496 4.96978 0.333496C5.90027 0.333496 6.55429 0.459346 7.28129 0.818919C7.5344 0.944108 7.77221 1.0926 7.99339 1.264C8.22344 1.08242 8.47115 0.926783 8.73518 0.797545Z" fill="#FF74D5"/>
</svg>
