<svg width="21" height="13" viewBox="0 0 21 13" fill="none" xmlns="http://www.w3.org/2000/svg">
<circle cx="10.5274" cy="3.2278" r="3.03243" fill="#123A5F"/>
<path d="M10.5274 12.0248H15.8974C15.8974 9.98905 15.6625 7.18678 10.5274 7.18678C5.39237 7.18678 5.15748 9.98905 5.15748 12.0248H10.5274Z" fill="#123A5F"/>
<path fill-rule="evenodd" clip-rule="evenodd" d="M16.9177 12.0248H20.5156C20.5156 10.5432 20.3446 8.50386 16.6075 8.50386C16.3548 8.50386 16.1185 8.51318 15.8973 8.53103C16.8451 9.52346 16.9177 10.8926 16.9177 12.0248Z" fill="#123A5F"/>
<circle cx="16.3487" cy="5.50026" r="2.10233" fill="#123A5F"/>
<path fill-rule="evenodd" clip-rule="evenodd" d="M8.35571 12.0248H4.13712C4.13712 10.8927 4.20977 9.52352 5.15743 8.53107C4.93643 8.51325 4.70019 8.50394 4.44767 8.50394C0.710581 8.50394 0.539636 10.5433 0.539636 12.0249H4.44767H8.35571C8.35571 12.0249 8.35571 12.0249 8.35571 12.0248Z" fill="#123A5F"/>
<circle r="2.10233" transform="matrix(-1 0 0 1 4.91305 5.50026)" fill="#123A5F"/>
</svg>
