<svg width="171" height="193" viewBox="0 0 171 193" fill="none" xmlns="http://www.w3.org/2000/svg">
<path d="M160 127C110 123.5 75.5 135 75.5 135V6.10352e-05C111 22 154.289 71.4277 160 127Z" fill="#196AB4"/>
<path d="M67.4995 35V135C67.4995 135 55.5 122.5 13.5 118.5L67.4995 35Z" fill="#9ADFFC"/>
<path d="M27.5 13.5L67.5 -1.74846e-06L67.5 27L27.5 13.5Z" fill="#EE5076"/>
<path d="M0 140H170C170 140 172 171.5 142.5 186C132.5 190.915 112 199.954 74.5 183.5C45.6019 170.82 30.2868 188.633 21.5 190L0 140Z" fill="#48A7DD"/>
<path fill-rule="evenodd" clip-rule="evenodd" d="M170 140H0L4.3 150H169.212C170.26 144.09 170 140 170 140Z" fill="#EE5076"/>
</svg>
