<svg width="16" height="14" viewBox="0 0 16 14" fill="none" xmlns="http://www.w3.org/2000/svg">
<path fill-rule="evenodd" clip-rule="evenodd" d="M14.961 9.63562L10.2908 1.65191C9.82194 0.839096 8.94805 0.334606 8.00297 0.333498C7.05779 0.332393 6.1836 0.834802 5.7089 1.65194L1.03695 9.63858C0.552498 10.4531 0.541538 11.4739 1.01078 12.3063C1.48041 13.1394 2.35977 13.6579 3.31626 13.6657L12.6748 13.6657C13.6413 13.6563 14.519 13.1394 14.9885 12.307C15.4575 11.4756 15.447 10.4572 14.961 9.63562ZM2.18537 10.316L6.86078 2.32344C7.09756 1.91586 7.53182 1.66628 8.00139 1.66683C8.47091 1.66738 8.90501 1.91799 9.13787 2.32165L13.8118 10.3117C14.0568 10.7258 14.062 11.2357 13.8272 11.6519C13.592 12.0688 13.1524 12.3277 12.6683 12.3324L3.32167 12.3324C2.84793 12.3285 2.40746 12.0688 2.17227 11.6516C1.93733 11.2348 1.94282 10.7238 2.18537 10.316ZM8.00022 10.9991C8.36853 10.9991 8.6671 10.7006 8.6671 10.3324C8.6671 9.96422 8.36853 9.66575 8.00022 9.66575C7.63191 9.66575 7.33333 9.96422 7.33333 10.3324C7.33333 10.7006 7.63191 10.9991 8.00022 10.9991ZM8.66908 4.33241H7.33531V8.99908H8.66908V4.33241Z" fill="#FFD601"/>
</svg>
