<svg xmlns="http://www.w3.org/2000/svg" width="28" height="28"><path d="M 20.625 2 C 20.625 0.895 21.52 0 22.625 0 C 23.73 0 24.625 0.895 24.625 2 C 24.625 3.105 23.73 4 22.625 4 C 21.52 4 20.625 3.105 20.625 2 Z" fill="rgb(238,80,118)"></path><path d="M 13.966 3 C 25.55 3 19.343 17.484 24.5 21 L 3.5 21 C 8.643 17.484 2.382 3 13.966 3 Z" fill="transparent" stroke-width="2" stroke="rgb(255, 255, 255)" stroke-linejoin="round" stroke-dasharray=""></path><path d="M 14 26 C 17 26 19 23.51 19 21 L 9 21 C 9 23.51 11 26 14 26 Z" fill="transparent" stroke-width="2" stroke="rgb(255, 255, 255)" stroke-linecap="square" stroke-linejoin="round" stroke-dasharray=""></path></svg>