<svg width="50" height="50" viewBox="0 0 50 50" fill="none" xmlns="http://www.w3.org/2000/svg">
<path d="M16.8559 30.48L16.8564 30.4805L26.4168 40.0347L26.4433 40.0612L26.4711 40.0863C27.1534 40.7032 28.0468 41.0341 28.9663 41.0105C29.8859 40.9869 30.7611 40.6106 31.4108 39.9595C32.0606 39.3084 32.435 38.4323 32.4567 37.5128C32.4783 36.5932 32.1455 35.7005 31.5272 35.0195L31.5029 34.9928L31.4774 34.9672L21.9233 25.4132C21.9233 25.4131 21.9232 25.4131 21.9232 25.413C21.8139 25.3037 21.7526 25.1554 21.7526 25.0008C21.7526 24.8462 21.8139 24.6979 21.9232 24.5885C21.9232 24.5885 21.9233 24.5884 21.9233 24.5884L31.4774 15.0344L31.4777 15.034C32.1496 14.3617 32.5268 13.45 32.5265 12.4995C32.5262 11.5491 32.1483 10.6376 31.4759 9.96579C30.8036 9.29394 29.8919 8.9167 28.9415 8.91703C27.9911 8.91737 27.0798 9.29516 26.408 9.96733C26.4079 9.96741 26.4078 9.9675 26.4077 9.96759L16.8559 19.5215L16.8559 19.5215C15.403 20.9749 14.5868 22.9458 14.5868 25.0008C14.5868 27.0558 15.403 29.0267 16.8559 30.48Z" fill="white" stroke="black" stroke-width="3"/>
</svg>
