<svg width="80" height="80" viewBox="0 0 80 80" fill="none" xmlns="http://www.w3.org/2000/svg">
<path d="M39.9292 63.5276C57.4718 63.5276 71.693 49.3064 71.693 31.7638C71.693 14.2211 57.4718 0 39.9292 0C22.3865 0 8.16541 14.2211 8.16541 31.7638C8.16541 49.3064 22.3865 63.5276 39.9292 63.5276Z" fill="#404040"/>
<path d="M14.1968 50.3467L3.2677 69.2916L16.0236 68.6144L21.8189 80.0002L31.9291 62.4727C24.685 60.5986 18.4646 56.2364 14.1968 50.3467Z" fill="#5A5A5A"/>
<path d="M65.7244 50.252C61.4882 56.1575 55.2677 60.5354 48.0394 62.4409L58.1811 80L63.9764 68.6142L76.7323 69.2913L65.7244 50.252Z" fill="#5A5A5A"/>
<path d="M39.9291 54.7875C52.6447 54.7875 62.9528 44.4795 62.9528 31.7639C62.9528 19.0483 52.6447 8.74023 39.9291 8.74023C27.2135 8.74023 16.9055 19.0483 16.9055 31.7639C16.9055 44.4795 27.2135 54.7875 39.9291 54.7875Z" fill="#959595"/>
<path d="M55.7086 29.2759C56.4173 28.583 56.0236 27.3704 55.0472 27.2287L45.9606 25.9058C45.5669 25.8428 45.2362 25.6066 45.063 25.2444L41 17.0082C40.559 16.1106 39.2834 16.1106 38.8425 17.0082L34.7953 25.2444C34.622 25.5909 34.2756 25.8428 33.8976 25.9058L24.811 27.2287C23.8346 27.3704 23.4409 28.583 24.1496 29.2759L30.7165 35.6854C31 35.9688 31.126 36.3625 31.063 36.7405L29.5197 45.7798C29.3464 46.7562 30.3858 47.5121 31.2677 47.0397L39.3937 42.772C39.7401 42.583 40.1653 42.583 40.5118 42.772L48.6378 47.0397C49.5197 47.4964 50.5433 46.7562 50.3858 45.7798L48.8268 36.7405C48.7638 36.3468 48.8897 35.9531 49.1732 35.6854L55.7086 29.2759Z" fill="white"/>
</svg>
