<svg width="50" height="50" viewBox="0 0 50 50" fill="none" xmlns="http://www.w3.org/2000/svg">
<path d="M33.1441 19.52L33.1436 19.5195L23.5832 9.96529L23.5567 9.9388L23.5289 9.91367C22.8466 9.29676 21.9532 8.96585 21.0337 8.98946C20.1141 9.01307 19.2389 9.3894 18.5892 10.0405C17.9394 10.6916 17.565 11.5677 17.5433 12.4872C17.5217 13.4068 17.8545 14.2995 18.4728 14.9805L18.4971 15.0072L18.5226 15.0328L28.0767 24.5868C28.0767 24.5869 28.0768 24.5869 28.0768 24.587C28.1861 24.6963 28.2474 24.8446 28.2474 24.9992C28.2474 25.1538 28.1861 25.3021 28.0768 25.4115C28.0768 25.4115 28.0767 25.4116 28.0767 25.4116L18.5226 34.9656L18.5223 34.966C17.8504 35.6383 17.4732 36.55 17.4735 37.5005C17.4738 38.4509 17.8517 39.3624 18.5241 40.0342C19.1964 40.7061 20.1081 41.0833 21.0585 41.083C22.0089 41.0826 22.9202 40.7048 23.592 40.0327C23.5921 40.0326 23.5922 40.0325 23.5923 40.0324L33.1441 30.4785L33.1441 30.4785C34.597 29.0251 35.4132 27.0542 35.4132 24.9992C35.4132 22.9442 34.597 20.9733 33.1441 19.52Z" fill="white" stroke="black" stroke-width="3"/>
</svg>
