<svg width="72" height="72" viewBox="0 0 72 72" fill="none" xmlns="http://www.w3.org/2000/svg">
<circle cx="36.25" cy="35.75" r="33.25" stroke="#EE5076" stroke-width="5"/>
<path d="M23.3352 27.824H26.5032V29.822C26.5032 32.63 27.7272 33.818 29.7972 34.394V37.004C27.8892 36.806 25.9272 35.906 24.9372 34.718C24.0012 35.942 21.9852 36.968 20.0232 37.22V34.592C22.1472 33.998 23.3352 32.612 23.3352 29.822V27.824ZM34.3692 27.716V37.292H31.2192V32.72H28.2132V30.146H31.2192V27.716H34.3692ZM21.3192 41.216C21.3192 40.136 21.8232 39.308 22.6332 38.732C23.8752 37.85 25.8372 37.49 28.0332 37.49C30.2112 37.49 32.1912 37.85 33.4152 38.732C34.2432 39.308 34.7472 40.136 34.7472 41.216C34.7472 42.314 34.2432 43.142 33.4152 43.718C32.1912 44.618 30.2112 44.96 28.0332 44.96C25.8372 44.96 23.8752 44.618 22.6332 43.718C21.8232 43.142 21.3192 42.314 21.3192 41.216ZM24.4152 41.216C24.4152 41.522 24.5772 41.738 24.8472 41.936C25.4232 42.296 26.5752 42.44 28.0332 42.44C29.4912 42.44 30.6252 42.296 31.2012 41.936C31.4892 41.738 31.6152 41.522 31.6152 41.216C31.6152 40.928 31.4892 40.73 31.2012 40.532C30.6252 40.172 29.4912 40.01 28.0332 40.01C26.5752 40.01 25.4232 40.172 24.8472 40.532C24.5772 40.73 24.4152 40.928 24.4152 41.216ZM48.4265 31.334V30.452H38.2565V27.914H51.5585V31.118C51.5585 32.09 51.4685 33.242 51.2525 34.016H48.1925C48.3725 33.26 48.4265 32.252 48.4265 31.334ZM42.0005 34.718V31.586H45.1325V34.718H52.5845V37.238H37.3205V34.718H42.0005ZM38.0765 41.486C38.0765 40.478 38.5265 39.722 39.3545 39.164C40.5245 38.336 42.5225 37.994 44.9705 37.994C47.4005 37.994 49.3805 38.336 50.5685 39.164C51.3785 39.722 51.8645 40.478 51.8645 41.486C51.8645 42.512 51.3785 43.268 50.5685 43.808C49.3805 44.636 47.4005 44.978 44.9705 44.978C42.5225 44.978 40.5245 44.636 39.3545 43.808C38.5265 43.268 38.0765 42.512 38.0765 41.486ZM41.1545 41.486C41.1545 41.72 41.2805 41.918 41.4965 42.062C42.0185 42.44 43.1345 42.566 44.9705 42.566C46.7885 42.566 47.9045 42.44 48.4265 42.062C48.6245 41.918 48.7505 41.72 48.7505 41.486C48.7505 41.27 48.6245 41.072 48.4265 40.928C47.9045 40.568 46.7885 40.388 44.9705 40.388C43.1345 40.388 42.0185 40.568 41.4965 40.928C41.2805 41.072 41.1545 41.27 41.1545 41.486Z" fill="#EE5076"/>
<path d="M22.4864 14.677C22.7858 13.7557 24.0892 13.7557 24.3886 14.6771L24.953 16.4141C25.0868 16.8262 25.4708 17.1051 25.904 17.1051H27.7305C28.6992 17.1051 29.102 18.3447 28.3183 18.9141L26.8406 19.9877C26.4901 20.2424 26.3435 20.6937 26.4774 21.1057L27.0418 22.8428C27.3411 23.7641 26.2867 24.5303 25.5029 23.9609L24.0253 22.8873C23.6748 22.6326 23.2002 22.6326 22.8497 22.8873L21.3721 23.9609C20.5883 24.5303 19.5339 23.7641 19.8332 22.8428L20.3976 21.1057C20.5315 20.6937 20.3848 20.2424 20.0344 19.9877L18.5567 18.9141C17.773 18.3447 18.1758 17.1051 19.1445 17.1051H20.971C21.4042 17.1051 21.7882 16.8262 21.922 16.4141L22.4864 14.677Z" fill="#EE5076"/>
<path d="M35.6427 10.927C35.942 10.0057 37.2455 10.0057 37.5448 10.9271L38.1092 12.6641C38.2431 13.0762 38.627 13.3551 39.0603 13.3551H40.8868C41.8555 13.3551 42.2583 14.5947 41.4745 15.1641L39.9969 16.2377C39.6464 16.4924 39.4997 16.9437 39.6336 17.3557L40.198 19.0928C40.4974 20.0141 39.4429 20.7803 38.6592 20.2109L37.1815 19.1373C36.831 18.8826 36.3565 18.8826 36.006 19.1373L34.5283 20.2109C33.7446 20.7803 32.6901 20.0141 32.9895 19.0928L33.5539 17.3557C33.6878 16.9437 33.5411 16.4924 33.1906 16.2377L31.713 15.1641C30.9292 14.5947 31.332 13.3551 32.3007 13.3551H34.1272C34.5605 13.3551 34.9444 13.0762 35.0783 12.6641L35.6427 10.927Z" fill="#EE5076"/>
<path d="M48.7989 14.677C49.0983 13.7557 50.4017 13.7557 50.7011 14.6771L51.2655 16.4141C51.3993 16.8262 51.7833 17.1051 52.2165 17.1051H54.043C55.0117 17.1051 55.4145 18.3447 54.6308 18.9141L53.1531 19.9877C52.8026 20.2424 52.656 20.6937 52.7899 21.1057L53.3543 22.8428C53.6536 23.7641 52.5992 24.5303 51.8154 23.9609L50.3378 22.8873C49.9873 22.6326 49.5127 22.6326 49.1622 22.8873L47.6846 23.9609C46.9008 24.5303 45.8464 23.7641 46.1457 22.8428L46.7101 21.1057C46.844 20.6937 46.6973 20.2424 46.3469 19.9877L44.8692 18.9141C44.0855 18.3447 44.4883 17.1051 45.457 17.1051H47.2835C47.7167 17.1051 48.1007 16.8262 48.2345 16.4141L48.7989 14.677Z" fill="#EE5076"/>
<path d="M21.7989 59.323C22.0983 60.2443 23.4017 60.2443 23.7011 59.3229L24.2655 57.5859C24.3993 57.1738 24.7833 56.8949 25.2165 56.8949H27.043C28.0117 56.8949 28.4145 55.6553 27.6308 55.0859L26.1531 54.0123C25.8026 53.7576 25.656 53.3063 25.7899 52.8943L26.3543 51.1572C26.6536 50.2359 25.5992 49.4697 24.8154 50.0391L23.3378 51.1127C22.9873 51.3674 22.5127 51.3674 22.1622 51.1127L20.6846 50.0391C19.9008 49.4697 18.8464 50.2359 19.1457 51.1572L19.7101 52.8943C19.844 53.3063 19.6973 53.7576 19.3469 54.0123L17.8692 55.0859C17.0855 55.6553 17.4883 56.8949 18.457 56.8949H20.2835C20.7167 56.8949 21.1007 57.1738 21.2345 57.5859L21.7989 59.323Z" fill="#EE5076"/>
<path d="M35.2989 63.073C35.5983 63.9943 36.9017 63.9943 37.2011 63.0729L37.7655 61.3359C37.8993 60.9238 38.2833 60.6449 38.7165 60.6449H40.543C41.5117 60.6449 41.9145 59.4053 41.1308 58.8359L39.6531 57.7623C39.3026 57.5076 39.156 57.0563 39.2899 56.6443L39.8543 54.9072C40.1536 53.9859 39.0992 53.2197 38.3154 53.7891L36.8378 54.8627C36.4873 55.1174 36.0127 55.1174 35.6622 54.8627L34.1846 53.7891C33.4008 53.2197 32.3464 53.9859 32.6457 54.9072L33.2101 56.6443C33.344 57.0563 33.1973 57.5076 32.8469 57.7623L31.3692 58.8359C30.5855 59.4053 30.9883 60.6449 31.957 60.6449H33.7835C34.2167 60.6449 34.6007 60.9238 34.7345 61.3359L35.2989 63.073Z" fill="#EE5076"/>
<path d="M48.7989 59.323C49.0983 60.2443 50.4017 60.2443 50.7011 59.3229L51.2655 57.5859C51.3993 57.1738 51.7833 56.8949 52.2165 56.8949H54.043C55.0117 56.8949 55.4145 55.6553 54.6308 55.0859L53.1531 54.0123C52.8026 53.7576 52.656 53.3063 52.7899 52.8943L53.3543 51.1572C53.6536 50.2359 52.5992 49.4697 51.8154 50.0391L50.3378 51.1127C49.9873 51.3674 49.5127 51.3674 49.1622 51.1127L47.6846 50.0391C46.9008 49.4697 45.8464 50.2359 46.1457 51.1572L46.7101 52.8943C46.844 53.3063 46.6973 53.7576 46.3469 54.0123L44.8692 55.0859C44.0855 55.6553 44.4883 56.8949 45.457 56.8949H47.2835C47.7167 56.8949 48.1007 57.1738 48.2345 57.5859L48.7989 59.323Z" fill="#EE5076"/>
</svg>
