<svg width="21" height="18" viewBox="0 0 21 18" fill="none" xmlns="http://www.w3.org/2000/svg">
<path d="M7.16656 15C5.94086 15 4.94434 15.7187 4.94434 16.9444V17.3611C4.94434 17.4716 4.98823 17.5776 5.06637 17.6557C5.14452 17.7339 5.2505 17.7778 5.361 17.7778H15.6388C15.7493 17.7778 15.8553 17.7339 15.9334 17.6557C16.0115 17.5776 16.0554 17.4716 16.0554 17.3611V16.9444C16.0554 15.7187 15.0589 15 13.8332 15H7.16656Z" fill="#AAAAAA"/>
<path d="M19.6667 2.22222H16.0556V0.833336C16.0558 0.724175 16.0346 0.616028 15.9931 0.515071C15.9516 0.414115 15.8906 0.322325 15.8136 0.244942C15.7366 0.16756 15.6451 0.106101 15.5443 0.0640743C15.4436 0.0220475 15.3355 0.000275862 15.2264 2.61746e-06H5.77778C5.66862 -0.000271313 5.56047 0.0209585 5.45951 0.0624798C5.35856 0.104001 5.26677 0.165001 5.18938 0.241996C5.112 0.318991 5.05054 0.410474 5.00852 0.511222C4.96649 0.611969 4.94472 0.720008 4.94444 0.829169V2.22222H1.33333C1.22417 2.22195 1.11603 2.24318 1.01507 2.2847C0.914112 2.32622 0.822322 2.38722 0.74494 2.46422C0.667558 2.54121 0.606099 2.6327 0.564072 2.73344C0.522045 2.83419 0.500273 2.94223 0.5 3.05139V5C0.5 6.23959 1.28125 7.51389 2.64931 8.49653C3.74306 9.28472 5.07292 9.78472 6.46875 9.94445C7.55903 11.7535 8.83333 12.5 8.83333 12.5V15H12.1667V12.5C12.1667 12.5 13.441 11.7535 14.5312 9.94445C15.9306 9.78472 17.2604 9.28472 18.3507 8.49653C19.7153 7.51389 20.5 6.23959 20.5 5V3.05556C20.5003 2.9464 20.479 2.83825 20.4375 2.73729C20.396 2.63634 20.335 2.54455 20.258 2.46716C20.181 2.38978 20.0895 2.32832 19.9888 2.2863C19.888 2.24427 19.78 2.2225 19.6708 2.22222H19.6667ZM3.94792 6.69445C3.10069 6.08334 2.72222 5.40278 2.72222 5V4.44445H4.95139C4.97745 5.45648 5.12669 6.46157 5.39583 7.4375C4.87951 7.26181 4.3917 7.01147 3.94792 6.69445ZM18.2778 5C18.2778 5.55903 17.6632 6.25347 17.0521 6.69445C16.607 7.01145 16.1181 7.26177 15.6007 7.4375C15.8698 6.46157 16.0191 5.45648 16.0451 4.44445H18.2778V5Z" fill="#AAAAAA"/>
</svg>
