<svg width="12" height="13" viewBox="0 0 12 13" fill="none" xmlns="http://www.w3.org/2000/svg">
<path d="M6.2373 1.49811H2.1123C1.56002 1.49811 1.1123 1.94582 1.1123 2.49811V10.7481C1.1123 11.3004 1.56002 11.7481 2.1123 11.7481H10.3623C10.9146 11.7481 11.3623 11.3004 11.3623 10.7481V6.62311" stroke="#123A5F" stroke-width="0.7" stroke-linejoin="round"/>
<path d="M6.2087 5.68802C6.07202 5.82471 6.07202 6.04632 6.20871 6.183C6.3454 6.31968 6.56701 6.31967 6.70369 6.18298L6.2087 5.68802ZM11.7122 1.02918C11.7122 0.835881 11.5555 0.679185 11.3622 0.67919L8.21222 0.679278C8.01892 0.679284 7.86222 0.835989 7.86223 1.02929C7.86223 1.22259 8.01894 1.37928 8.21224 1.37928L11.0122 1.3792L11.0123 4.1792C11.0123 4.3725 11.169 4.5292 11.3623 4.52919C11.5556 4.52918 11.7123 4.37248 11.7123 4.17918L11.7122 1.02918ZM6.70369 6.18298L11.6097 1.27667L11.1147 0.78171L6.2087 5.68802L6.70369 6.18298Z" fill="#123A5F"/>
</svg>
