<svg width="17" height="17" viewBox="0 0 17 17" fill="none" xmlns="http://www.w3.org/2000/svg">
<path fill-rule="evenodd" clip-rule="evenodd" d="M15.0606 0.969694H1.93939C1.40384 0.969694 0.969694 1.40384 0.969694 1.93939V15.0606C0.969694 15.5962 1.40384 16.0303 1.93939 16.0303H15.0606C15.5962 16.0303 16.0303 15.5962 16.0303 15.0606V1.93939C16.0303 1.40384 15.5962 0.969694 15.0606 0.969694ZM1.93939 0C0.868293 0 0 0.868294 0 1.93939V15.0606C0 16.1317 0.868294 17 1.93939 17H15.0606C16.1317 17 17 16.1317 17 15.0606V1.93939C17 0.868293 16.1317 0 15.0606 0H1.93939Z" fill="#123A5F"/>
<path fill-rule="evenodd" clip-rule="evenodd" d="M5.51891 6.50539C5.39032 6.50539 5.267 6.55647 5.17608 6.6474L0.158232 11.6652C-0.0311108 11.8546 -0.0311108 12.1616 0.158232 12.3509C0.347578 12.5403 0.654564 12.5403 0.84391 12.3509L5.51891 7.67592L10.1939 12.3509C10.2848 12.4418 10.4082 12.4929 10.5368 12.4929C10.6653 12.4929 10.7887 12.4418 10.8796 12.3509L13.5178 9.71268L16.1561 12.3509C16.3454 12.5403 16.6524 12.5403 16.8418 12.3509C17.0311 12.1616 17.0311 11.8546 16.8418 11.6652L13.8607 8.68416C13.7697 8.59324 13.6464 8.54216 13.5178 8.54216C13.3892 8.54216 13.2659 8.59324 13.175 8.68416L10.5368 11.3224L5.86175 6.6474C5.77083 6.55647 5.6475 6.50539 5.51891 6.50539Z" fill="#123A5F"/>
<path fill-rule="evenodd" clip-rule="evenodd" d="M12.6403 3.12193C11.8357 3.12193 11.1834 3.77423 11.1834 4.57889C11.1834 5.38355 11.8357 6.03585 12.6403 6.03585C13.445 6.03585 14.0973 5.38355 14.0973 4.57889C14.0973 3.77423 13.445 3.12193 12.6403 3.12193ZM10.2137 4.57889C10.2137 3.23868 11.3001 2.15223 12.6403 2.15223C13.9805 2.15223 15.067 3.23868 15.067 4.57889C15.067 5.9191 13.9805 7.00555 12.6403 7.00555C11.3001 7.00555 10.2137 5.9191 10.2137 4.57889Z" fill="#123A5F"/>
</svg>
