<svg width="20" height="18" viewBox="0 0 20 18" fill="none" xmlns="http://www.w3.org/2000/svg">
<path d="M5.00003 6.66667L4.98267 0.5625C4.98267 0.413316 5.04193 0.270242 5.14742 0.164752C5.25291 0.0592632 5.39598 0 5.54517 0L14.4271 0.0208333C14.5745 0.0208333 14.7158 0.0793649 14.8199 0.183552C14.9241 0.287739 14.9827 0.429046 14.9827 0.576389L15 6.66667H5.00003Z" fill="#AAAAAA"/>
<path d="M0 11.1112V16.6667C0 16.9614 0.117063 17.244 0.325437 17.4524C0.533811 17.6608 0.816426 17.7779 1.11111 17.7779H18.8889C19.1836 17.7779 19.4662 17.6608 19.6746 17.4524C19.8829 17.244 20 16.9614 20 16.6667V11.1112H0ZM19.9549 10.0001C19.9653 9.98702 19.9746 9.97308 19.9826 9.95841L18.0556 5.14591C17.9727 4.94009 17.8303 4.76369 17.6466 4.63934C17.4629 4.51499 17.2462 4.44836 17.0243 4.448H16.1007L16.1076 6.67022L16.6632 7.78133H3.31597L3.87153 6.67022H3.88889L3.88194 4.448H2.97569C2.75383 4.44836 2.53714 4.51499 2.3534 4.63934C2.16966 4.76369 2.02725 4.94009 1.94444 5.14591L0.0138889 9.95841C0.0243056 9.97578 0.03125 9.98272 0.0416667 10.0001H19.9549Z" fill="#AAAAAA"/>
</svg>
