<svg width="20" height="20" viewBox="0 0 20 20" fill="none" xmlns="http://www.w3.org/2000/svg">
<path fill-rule="evenodd" clip-rule="evenodd" d="M10 20C15.5228 20 20 15.5228 20 10C20 4.47715 15.5228 0 10 0C4.47715 0 0 4.47715 0 10C0 15.5228 4.47715 20 10 20ZM4.44388 10.1698H5.76835L5.80762 10.3114L6.87375 14.0741H7.5667H8.25966L9.32578 10.3114L9.36505 10.1698H10.4866L10.5258 10.3114L11.5919 14.0741H12.2849H12.9779L14.044 10.3114L14.0833 10.1698H15.555V8.9532H14.4186L15.1994 5.99245H13.9363L13.0755 8.9532H11.4952L10.6335 5.92593H9.9258H9.21806L8.3564 8.9532H6.77611L5.91534 5.99245H4.65222L5.43306 8.9532H4.44388V10.1698ZM7.15462 10.3114L7.11535 10.1698H8.01805L7.97879 10.3114L7.5667 11.7979L7.15462 10.3114ZM10.1493 8.9532H9.70232L9.9258 8.14705L10.1493 8.9532ZM11.8728 10.3114L11.8336 10.1698H12.7363L12.697 10.3114L12.2849 11.7979L11.8728 10.3114Z" fill="#3C99EF" fill-opacity="0.8"/>
</svg>
