<svg width="26" height="26" viewBox="0 0 26 26" fill="none" xmlns="http://www.w3.org/2000/svg">
<rect width="26" height="26" rx="13" fill="#EEA922"/>
<path d="M16.6 14.906L16.186 17.57H16.096L15.646 14.906L15.412 13.79H16.78L16.6 14.906ZM10.552 14.906L10.102 17.57H10.03L9.634 14.906L9.436 13.79H10.768L10.552 14.906ZM12.964 9.398H13.054L13.54 12.692H12.496L12.964 9.398ZM20.722 12.692H18.85L20.164 6.716H17.968L16.978 12.692H15.196L14.152 7.526H11.974L10.984 12.692H9.256L8.212 6.716H5.854L7.24 12.692H6.736L5.278 12.818V13.79H7.51L8.95 20H11.128L12.334 13.79H13.702L14.944 20H17.23L18.598 13.79H20.722V12.692Z" fill="white"/>
</svg>
