<svg width="25" height="24" viewBox="0 0 25 24" fill="none" xmlns="http://www.w3.org/2000/svg">
<circle cx="12.5" cy="12" r="12" fill="#252833"/>
<path d="M3.5 10.5C3.5 10.2239 3.72386 10 4 10H21C21.2761 10 21.5 10.2239 21.5 10.5V12.5C21.5 12.7761 21.2761 13 21 13H4C3.72386 13 3.5 12.7761 3.5 12.5V10.5Z" fill="#87C5FF"/>
<path d="M6.5875 11.2836L5.6622 7.71529C5.5801 7.39867 5.8191 7.08979 6.1462 7.08979H6.79954C7.02275 7.08979 7.21893 7.23775 7.28028 7.45237L8.37546 11.2836L8.82162 12.9204L8.8862 13.1574C9.02014 13.6487 9.71707 13.6487 9.851 13.1574L9.91559 12.9204L10.3617 11.2836L11.4584 7.36525C11.5188 7.1493 11.7156 7 11.9399 7H12.5H13.0602C13.2844 7 13.4812 7.1493 13.5417 7.36525L14.6383 11.2836L15.0844 12.9204L15.149 13.1574C15.2829 13.6487 15.9799 13.6487 16.1138 13.1574L16.1784 12.9204L16.6245 11.2836L17.7197 7.45237C17.7811 7.23775 17.9773 7.08979 18.2005 7.08979H18.8538C19.1809 7.08979 19.4199 7.39867 19.3378 7.71529L18.4125 11.2836L17.9664 12.9204L16.6531 17.6342C16.5929 17.8504 16.3959 18 16.1715 18H15.6314H15.0913C14.8669 18 14.6699 17.8504 14.6097 17.6342L13.2965 12.9204L12.8503 11.2836C12.753 10.9268 12.247 10.9268 12.1497 11.2836L11.7036 12.9204L10.3903 17.6342C10.3301 17.8504 10.1331 18 9.90867 18H9.3686H8.82854C8.60408 18 8.40712 17.8504 8.34688 17.6342L7.03366 12.9204L6.5875 11.2836Z" fill="#2D99FF"/>
<path d="M5.6622 7.71529L6.1462 7.58979L5.6622 7.71529ZM6.5875 11.2836L6.10347 11.4091L6.1051 11.4151L6.5875 11.2836ZM8.37546 11.2836L8.8579 11.1521L8.85621 11.1462L8.37546 11.2836ZM7.28028 7.45237L7.76102 7.31495V7.31495L7.28028 7.45237ZM11.4584 7.36525L11.9399 7.5L11.9399 7.5L11.4584 7.36525ZM10.3617 11.2836L9.88023 11.1489L9.87935 11.1521L10.3617 11.2836ZM14.6383 11.2836L15.1207 11.1521L15.1198 11.1489L14.6383 11.2836ZM13.5417 7.36525L14.0232 7.23049V7.23049L13.5417 7.36525ZM17.7197 7.45237L18.2005 7.58979L18.2005 7.58979L17.7197 7.45237ZM16.6245 11.2836L16.1438 11.1462L16.1421 11.1521L16.6245 11.2836ZM18.4125 11.2836L18.8949 11.4151L18.8965 11.4091L18.4125 11.2836ZM19.3378 7.71529L19.8218 7.8408V7.8408L19.3378 7.71529ZM17.9664 12.9204L18.448 13.0546L18.4488 13.0519L17.9664 12.9204ZM16.6531 17.6342L17.1348 17.7684L16.6531 17.6342ZM13.2965 12.9204L12.8141 13.0519L12.8148 13.0546L13.2965 12.9204ZM14.6097 17.6342L14.128 17.7684L14.6097 17.6342ZM10.3903 17.6342L10.872 17.7684L10.3903 17.6342ZM11.7036 12.9204L12.1852 13.0546L12.186 13.0519L11.7036 12.9204ZM7.03366 12.9204L6.55125 13.0519L6.552 13.0546L7.03366 12.9204ZM8.34688 17.6342L7.86523 17.7684H7.86523L8.34688 17.6342ZM8.8862 13.1574L9.3686 13.0259L8.8862 13.1574ZM8.82162 12.9204L8.33922 13.0519L8.82162 12.9204ZM9.91559 12.9204L9.43319 12.7889V12.7889L9.91559 12.9204ZM9.851 13.1574L10.3334 13.2888V13.2888L9.851 13.1574ZM15.149 13.1574L15.6314 13.0259L15.6314 13.0259L15.149 13.1574ZM15.0844 12.9204L14.602 13.0519V13.0519L15.0844 12.9204ZM16.1784 12.9204L15.696 12.7889V12.7889L16.1784 12.9204ZM16.1138 13.1574L16.5962 13.2888L16.5962 13.2888L16.1138 13.1574ZM12.1497 11.2836L11.6673 11.1521L12.1497 11.2836ZM12.8503 11.2836L12.3679 11.4151V11.4151L12.8503 11.2836ZM5.17821 7.8408L6.10351 11.4091L7.0715 11.1581L6.1462 7.58979L5.17821 7.8408ZM6.79954 6.58979H6.1462V7.58979H6.79954V6.58979ZM8.85621 11.1462L7.76102 7.31495L6.79954 7.58979L7.89472 11.4211L8.85621 11.1462ZM10.9769 7.23049L9.88025 11.1489L10.8432 11.4184L11.9399 7.5L10.9769 7.23049ZM12.5 6.5H11.9399V7.5H12.5V6.5ZM13.0602 6.5H12.5V7.5H13.0602V6.5ZM15.1198 11.1489L14.0232 7.23049L13.0602 7.5L14.1568 11.4184L15.1198 11.1489ZM17.239 7.31494L16.1438 11.1462L17.1053 11.4211L18.2005 7.58979L17.239 7.31494ZM18.8538 6.58979H18.2005V7.58979H18.8538V6.58979ZM18.8965 11.4091L19.8218 7.8408L18.8538 7.58979L17.9285 11.1581L18.8965 11.4091ZM18.4488 13.0519L18.8949 11.4151L17.9301 11.1521L17.484 12.7889L18.4488 13.0519ZM17.1348 17.7684L18.448 13.0546L17.4847 12.7862L16.1715 17.5L17.1348 17.7684ZM15.6314 18.5H16.1715V17.5H15.6314V18.5ZM15.0913 18.5H15.6314V17.5H15.0913V18.5ZM12.8148 13.0546L14.128 17.7684L15.0913 17.5L13.7781 12.7862L12.8148 13.0546ZM10.872 17.7684L12.1852 13.0546L11.2219 12.7862L9.90867 17.5L10.872 17.7684ZM9.3686 18.5H9.90867V17.5H9.3686V18.5ZM8.82854 18.5H9.3686V17.5H8.82854V18.5ZM6.552 13.0546L7.86523 17.7684L8.82854 17.5L7.51531 12.7862L6.552 13.0546ZM6.1051 11.4151L6.55126 13.0519L7.51606 12.7889L7.0699 11.1521L6.1051 11.4151ZM9.3686 13.0259L9.30402 12.7889L8.33922 13.0519L8.4038 13.2888L9.3686 13.0259ZM9.43319 12.7889L9.3686 13.0259L10.3334 13.2888L10.398 13.0519L9.43319 12.7889ZM15.6314 13.0259L15.5668 12.7889L14.602 13.0519L14.6666 13.2888L15.6314 13.0259ZM15.696 12.7889L15.6314 13.0259L16.5962 13.2888L16.6608 13.0519L15.696 12.7889ZM9.87935 11.1521L9.43319 12.7889L10.398 13.0519L10.8441 11.4151L9.87935 11.1521ZM7.89306 11.4151L8.33922 13.0519L9.30402 12.7889L8.85786 11.1521L7.89306 11.4151ZM11.6673 11.1521L11.2212 12.7889L12.186 13.0519L12.6321 11.4151L11.6673 11.1521ZM12.3679 11.4151L12.8141 13.0519L13.7789 12.7889L13.3327 11.1521L12.3679 11.4151ZM14.1559 11.4151L14.602 13.0519L15.5668 12.7889L15.1207 11.1521L14.1559 11.4151ZM16.1421 11.1521L15.696 12.7889L16.6608 13.0519L17.1069 11.4151L16.1421 11.1521ZM14.6666 13.2888C14.9345 14.2715 16.3283 14.2715 16.5962 13.2888L15.6314 13.0259V13.0259L14.6666 13.2888ZM6.1462 7.58979H6.1462V6.58979C5.49201 6.58979 5.01401 7.20756 5.17821 7.8408L6.1462 7.58979ZM8.4038 13.2888C8.67167 14.2715 10.0655 14.2715 10.3334 13.2888L9.3686 13.0259L9.3686 13.0259L8.4038 13.2888ZM9.90867 17.5H9.90867V18.5C10.3576 18.5 10.7515 18.2008 10.872 17.7684L9.90867 17.5ZM16.1715 17.5H16.1715V18.5C16.6204 18.5 17.0143 18.2008 17.1348 17.7684L16.1715 17.5ZM13.0602 7.5V7.5L14.0232 7.23049C13.9023 6.7986 13.5086 6.5 13.0602 6.5V7.5ZM6.79954 7.58979L6.79954 7.58979L7.76102 7.31495C7.63832 6.88571 7.24597 6.58979 6.79954 6.58979V7.58979ZM8.82854 17.5H8.82854L7.86523 17.7684C7.98571 18.2008 8.37961 18.5 8.82854 18.5V17.5ZM18.2005 7.58979V7.58979V6.58979C17.754 6.58979 17.3617 6.8857 17.239 7.31495L18.2005 7.58979ZM15.0913 17.5H15.0913L14.128 17.7684C14.2485 18.2008 14.6424 18.5 15.0913 18.5V17.5ZM13.3327 11.1521C13.1015 10.304 11.8985 10.304 11.6673 11.1521L12.6321 11.4151C12.626 11.4374 12.6079 11.4679 12.5765 11.4902C12.5489 11.5099 12.5215 11.516 12.5 11.516C12.4785 11.516 12.4511 11.5099 12.4235 11.4902C12.3921 11.4679 12.374 11.4374 12.3679 11.4151L13.3327 11.1521ZM11.9399 7.5L11.9399 7.5V6.5C11.4914 6.5 11.0977 6.7986 10.9769 7.23049L11.9399 7.5ZM18.8538 7.58979L18.8538 7.58979L19.8218 7.8408C19.986 7.20756 19.508 6.58979 18.8538 6.58979V7.58979Z" fill="#2D99FF"/>
</svg>
