<svg width="30" height="30" viewBox="0 0 30 30" fill="none" xmlns="http://www.w3.org/2000/svg">
<path d="M17.3986 10.1128L19.864 12.5782" stroke="#101214" stroke-width="2" stroke-linecap="round" stroke-linejoin="round"/>
<path d="M8.52199 17.5198C8.5188 17.5321 8.51585 17.5444 8.51313 17.5568L7.88642 20.4093C7.74175 20.8469 7.77871 21.4004 8.18913 21.8109C8.59955 22.2213 9.15312 22.2582 9.59065 22.1136L12.4432 21.4869C12.4556 21.4841 12.4679 21.4812 12.4802 21.478C12.7621 21.4047 13.0168 21.2524 13.2195 21.0497L22.8773 11.3919C23.1119 11.1573 23.2837 10.8477 23.3363 10.5025C23.3889 10.1576 23.3245 9.70276 22.9728 9.35105L20.6489 7.02722C20.2972 6.67551 19.8424 6.61108 19.4975 6.66366C19.1523 6.7163 18.8427 6.88811 18.6081 7.12268L8.95028 16.7805C8.74758 16.9832 8.59526 17.2379 8.52199 17.5198Z" stroke="#101214" stroke-width="2" stroke-linejoin="round"/>
<rect x="1" y="1" width="28" height="28" rx="14" stroke="black" stroke-width="2"/>
</svg>
