<svg xmlns="http://www.w3.org/2000/svg" width="28" height="28"><path d="M 18 7 L 18 5.5 C 18 3.015 15.985 1 13.5 1 L 13.5 1 C 11.015 1 9 3.015 9 5.5 L 9 7" fill="transparent" stroke-width="2" stroke="rgb(255, 255, 255)" stroke-linejoin="round" stroke-dasharray=""></path><path d="M 16.48 11.556 L 10.52 11.556 C 10.351 11.556 10.194 11.64 10.102 11.781 L 7.221 16.171 C 7.092 16.367 7.118 16.628 7.283 16.796 L 13.144 22.749 C 13.34 22.948 13.66 22.948 13.856 22.749 L 19.717 16.796 C 19.882 16.628 19.908 16.367 19.779 16.171 L 16.898 11.781 C 16.806 11.64 16.648 11.556 16.48 11.556 Z" fill="rgb(97,204,166)"></path><path d="M 16.898 11.781 L 17.4 11.452 L 17.4 11.452 Z M 19.779 16.17 L 20.28 15.841 L 20.28 15.841 Z M 7.221 16.17 L 6.72 15.841 L 6.72 15.841 Z M 10.102 11.781 L 10.604 12.11 L 10.604 12.11 Z M 13.144 22.749 L 13.571 22.328 L 13.571 22.328 Z M 7.283 16.796 L 7.711 16.375 L 7.711 16.375 Z M 19.717 16.796 L 19.289 16.375 L 19.289 16.375 Z M 13.856 22.749 L 13.429 22.328 L 13.429 22.328 Z M 10.52 12.156 L 16.48 12.156 L 16.48 10.956 L 10.52 10.956 Z M 16.396 12.11 L 19.277 16.5 L 20.28 15.841 L 17.4 11.452 Z M 7.723 16.5 L 10.604 12.11 L 9.6 11.452 L 6.72 15.841 Z M 13.571 22.328 L 7.711 16.375 L 6.856 17.216 L 12.716 23.17 Z M 19.289 16.375 L 13.429 22.328 L 14.284 23.17 L 20.144 17.216 Z M 12.716 23.17 C 13.147 23.608 13.853 23.608 14.284 23.17 L 13.429 22.328 C 13.468 22.288 13.532 22.288 13.571 22.328 Z M 6.72 15.841 C 6.436 16.274 6.492 16.847 6.856 17.216 L 7.711 16.375 C 7.744 16.408 7.749 16.46 7.723 16.5 Z M 19.277 16.5 C 19.251 16.46 19.256 16.408 19.289 16.375 L 20.144 17.216 C 20.508 16.847 20.564 16.274 20.28 15.841 Z M 16.48 12.156 C 16.446 12.156 16.415 12.139 16.396 12.11 L 17.4 11.452 C 17.196 11.142 16.851 10.956 16.48 10.956 Z M 10.52 10.956 C 10.149 10.956 9.804 11.142 9.6 11.452 L 10.604 12.11 C 10.585 12.139 10.554 12.156 10.52 12.156 Z" fill="rgb(16,18,20)"></path><path d="M 7.442 16.222 L 11.333 16.222 L 13.5 16.222 L 15.667 16.222 M 19.053 16.222 L 15.667 16.222 M 13.712 11.556 L 15.667 16.222 M 15.667 16.222 L 13.5 22.885" fill="transparent" stroke="rgb(255, 255, 255)" stroke-linecap="round" stroke-miterlimit="10" stroke-dasharray=""></path><path d="M 13.5 11.556 L 11.333 16.222 L 13.5 22.885" fill="transparent" stroke="rgb(255, 255, 255)" stroke-linecap="round" stroke-miterlimit="10" stroke-dasharray=""></path><path d="M 13.856 22.749 L 13.429 22.328 M 7.221 16.17 L 7.723 16.5 M 19.779 16.17 L 19.277 16.5 M 19.717 16.796 L 20.144 17.216 M 16.898 11.781 L 16.396 12.11 M 10.102 11.781 L 9.6 11.452 M 10.52 12.156 L 16.48 12.156 L 16.48 10.956 L 10.52 10.956 Z M 16.396 12.11 L 19.277 16.5 L 20.28 15.841 L 17.4 11.452 Z M 7.723 16.5 L 10.603 12.11 L 9.6 11.452 L 6.72 15.841 Z M 13.571 22.328 L 7.711 16.375 L 6.856 17.216 L 12.716 23.17 Z M 19.289 16.375 L 13.429 22.328 L 14.284 23.17 L 20.144 17.216 Z M 12.716 23.17 C 13.147 23.608 13.853 23.608 14.284 23.17 L 13.429 22.328 C 13.468 22.288 13.532 22.288 13.571 22.328 Z M 6.72 15.841 C 6.436 16.274 6.492 16.847 6.856 17.216 L 7.711 16.375 C 7.744 16.408 7.749 16.46 7.723 16.5 Z M 19.277 16.5 C 19.251 16.46 19.256 16.408 19.289 16.375 L 20.144 17.216 C 20.508 16.847 20.564 16.274 20.28 15.841 Z M 16.48 12.156 C 16.446 12.156 16.415 12.139 16.396 12.11 L 17.4 11.452 C 17.196 11.142 16.851 10.956 16.48 10.956 Z M 10.52 10.956 C 10.149 10.956 9.804 11.142 9.6 11.452 L 10.603 12.11 C 10.585 12.139 10.554 12.156 10.52 12.156 Z" fill="rgb(255, 255, 255)" opacity="0.93"></path><path d="M 24.768 24.791 L 23.088 8.791 C 22.981 7.773 22.123 7 21.099 7 L 18 7 L 13.5 7 L 9 7 L 5.901 7 C 4.877 7 4.019 7.773 3.912 8.791 L 2.232 24.791 C 2.108 25.972 3.034 27 4.221 27 L 22.779 27 C 23.966 27 24.892 25.972 24.768 24.791 Z" fill="transparent" stroke-width="2" stroke="rgb(255, 255, 255)" stroke-linecap="square" stroke-linejoin="round" stroke-dasharray=""></path></svg>